<?xml version="1.0" encoding="UTF-8" standalone="no"?>
<!-- Created with Inkscape (http://www.inkscape.org/) -->

<svg
   width="210mm"
   height="297mm"
   viewBox="0 0 595.2756 841.88974"
   version="1.1"
   id="svg1439"
   sodipodi:docname="dark.svg"
   inkscape:version="1.1.2 (0a00cf5339, 2022-02-04)"
   xmlns:inkscape="http://www.inkscape.org/namespaces/inkscape"
   xmlns:sodipodi="http://sodipodi.sourceforge.net/DTD/sodipodi-0.dtd"
   xmlns="http://www.w3.org/2000/svg"
   xmlns:svg="http://www.w3.org/2000/svg">
  <sodipodi:namedview
     id="namedview1441"
     pagecolor="#ffffff"
     bordercolor="#666666"
     borderopacity="1.0"
     inkscape:pageshadow="2"
     inkscape:pageopacity="0.0"
     inkscape:pagecheckerboard="0"
     inkscape:document-units="pt"
     showgrid="false"
     inkscape:zoom="0.25"
     inkscape:cx="-678"
     inkscape:cy="46"
     inkscape:window-width="1919"
     inkscape:window-height="1031"
     inkscape:window-x="0"
     inkscape:window-y="23"
     inkscape:window-maximized="1"
     inkscape:current-layer="layer1"
     width="211mm"
     units="mm"
     scale-x="1"
     showborder="true"
     inkscape:snap-smooth-nodes="true"
     inkscape:object-paths="true" />
  <defs
     id="defs1436" />
  <g
     inkscape:label="Ebene 1"
     inkscape:groupmode="layer"
     id="layer1">
    <g
       id="g3944"
       style="stroke-width:1;stroke-miterlimit:4;stroke-dasharray:none;fill:#929292;fill-opacity:1">
      <path
         id="neck-1"
         d="M 151.30667,385.34239 150.207,360.80338 70.725048,371.6372 71.845086,396.2373 Z"
         fill="#e6e6e6"
         data-darkreader-inline-fill=""
         style="stroke-width:1;stroke-miterlimit:4;stroke-dasharray:none;fill:#929292;fill-opacity:1">
        <animate
           attributeName="fill"
           restart="always"
           dur="4s"
           keyTimes="0;.1;1"
           values="#5f93f8; #5f93f8; #e6e6e6"
           style="fill-opacity:1.0;fill:url(#linearGradient4519)" />
      </path>
      <path
         id="key-1"
         d="m 85.509547,402.1878 -0.323793,-33.09203 c -0.173097,-17.66809 -14.635839,-31.8498 -34.686246,-31.65432 -20.050407,0.19548 -34.233343,14.65823 -34.060654,32.32631 l 0.32359,33.09203 c 0.172689,17.66605 14.635431,31.8498 34.68594,31.65431 20.050509,-0.19548 34.23426,-14.65822 34.061163,-32.3263 z"
         fill="#e6e6e6"
         data-darkreader-inline-fill=""
         style="fill:#929292;fill-opacity:1;stroke-width:1;stroke-miterlimit:4;stroke-dasharray:none"
         sodipodi:nodetypes="ccccccc">
        <animate
           attributeName="fill"
           restart="always"
           dur="4s"
           keyTimes="0;.1;1"
           values="#5f93f8; #5f93f8; #e6e6e6"
           style="fill-opacity:1.0;fill:url(#linearGradient4519)" />
      </path>
    </g>
    <g
       id="g3940"
       style="stroke-width:1;stroke-miterlimit:4;stroke-dasharray:none;fill:#929292;fill-opacity:1">
      <path
         id="neck-0"
         d="m 150.55319,562.89892 -1.12003,-24.55937 -79.461591,10.81345 1.079309,24.57974 z"
         fill="#e6e6e6"
         data-darkreader-inline-fill=""
         style="stroke-width:1;stroke-miterlimit:4;stroke-dasharray:none;fill:#929292;fill-opacity:1">
        <animate
           attributeName="fill"
           restart="always"
           dur="4s"
           keyTimes="0;.1;1"
           values="#5f93f8; #5f93f8; #e6e6e6"
           style="fill-opacity:1.0;fill:url(#linearGradient4521)" />
      </path>
      <path
         id="key-0"
         d="M 87.171276,572.03032 86.926904,547.04326 C 86.753807,529.37517 72.291065,515.19346 52.240455,515.38893 32.189844,515.58441 18.007111,530.04715 18.1798,547.71524 l 0.244169,24.98702 c 0.172689,17.66809 14.635431,31.84981 34.686042,31.65435 20.050611,-0.19546 34.232325,-14.6582 34.061265,-32.32629 z"
         fill="#e6e6e6"
         data-darkreader-inline-fill=""
         style="fill:#929292;fill-opacity:1;stroke-width:1;stroke-miterlimit:4;stroke-dasharray:none"
         sodipodi:nodetypes="cccsscc">
        <animate
           attributeName="fill"
           restart="always"
           dur="4s"
           keyTimes="0;.1;1"
           values="#5f93f8; #5f93f8; #e6e6e6"
           style="fill-opacity:1.0;fill:url(#linearGradient4521)" />
      </path>
    </g>
    <g
       id="g3948"
       style="stroke-width:1;stroke-miterlimit:4;stroke-dasharray:none;fill:#929292;fill-opacity:1">
      <path
         id="neck-2"
         d="m 151.42886,227.29488 -1.07931,-24.62047 -79.461587,10.83382 1.079309,24.64083 z"
         fill="#e6e6e6"
         data-darkreader-inline-fill=""
         style="stroke-width:1;stroke-miterlimit:4;stroke-dasharray:none;fill:#929292;fill-opacity:1">
        <animate
           attributeName="fill"
           restart="always"
           dur="4s"
           keyTimes="0;.1;1"
           values="#5f93f8; #5f93f8; #e6e6e6"
           style="fill-opacity:1.0;fill:url(#linearGradient4513)" />
      </path>
      <path
         id="key-2"
         d="M 83.974077,244.462 83.652321,211.37201 C 83.479224,193.70393 69.016482,179.52221 48.965667,179.71769 28.914853,179.91317 14.731917,194.37591 14.904606,212.044 l 0.323386,33.08998 c 0.172689,17.66809 14.635635,31.85184 34.686551,31.65535 20.050916,-0.1965 34.232631,-14.65924 34.059534,-32.32733 z"
         fill="#e6e6e6"
         data-darkreader-inline-fill=""
         style="fill:#929292;fill-opacity:1;stroke-width:1;stroke-miterlimit:4;stroke-dasharray:none"
         sodipodi:nodetypes="cccsscc">
        <animate
           attributeName="fill"
           restart="always"
           dur="4s"
           keyTimes="0;.1;1"
           values="#5f93f8; #5f93f8; #e6e6e6"
           style="fill-opacity:1.0;fill:url(#linearGradient4513)" />
      </path>
    </g>
    <g
       id="g3932"
       style="stroke-width:1;stroke-miterlimit:4;stroke-dasharray:none;fill:#929292;fill-opacity:1">
      <path
         id="neck-4"
         d="m 440.01168,382.51175 0.61093,-24.55938 79.66523,9.28613 -0.63129,24.62047 z"
         fill="#e6e6e6"
         data-darkreader-inline-fill=""
         style="stroke-width:1;stroke-miterlimit:4;stroke-dasharray:none;fill:#929292;fill-opacity:1">
        <animate
           attributeName="fill"
           restart="always"
           dur="4s"
           keyTimes="0;.1;1"
           values="#5f93f8; #5f93f8; #e6e6e6"
           style="fill-opacity:1.0;fill:url(#linearGradient4517)" />
      </path>
      <path
         id="key-4"
         d="m 505.7803,364.9984 0.32379,33.08999 c 0.17106,17.66808 14.6338,31.85183 34.68451,31.65534 20.05072,-0.1965 34.23447,-14.65924 34.06137,-32.32733 l -0.32379,-33.08998 c -0.1731,-17.66809 -14.63584,-31.84981 -34.68655,-31.65433 -20.05071,0.19548 -34.23243,14.65822 -34.05933,32.32631 z"
         fill="#e6e6e6"
         data-darkreader-inline-fill=""
         style="fill:#929292;fill-opacity:1;stroke-width:1;stroke-miterlimit:4;stroke-dasharray:none"
         sodipodi:nodetypes="ccccccc">
        <animate
           attributeName="fill"
           restart="always"
           dur="4s"
           keyTimes="0;.1;1"
           values="#5f93f8; #5f93f8; #e6e6e6"
           style="fill-opacity:1.0;fill:url(#linearGradient4517)" />
      </path>
    </g>
    <g
       id="g3936"
       style="stroke-width:1;stroke-miterlimit:4;stroke-dasharray:none;fill:#929292;fill-opacity:1">
      <path
         id="neck-5"
         d="m 444.2271,560.02755 0.63129,-24.57974 79.66523,9.26577 -0.59056,24.57974 z"
         fill="#e6e6e6"
         data-darkreader-inline-fill=""
         style="stroke-width:1;stroke-miterlimit:4;stroke-dasharray:none;fill:#929292;fill-opacity:1">
        <animate
           attributeName="fill"
           restart="always"
           dur="4s"
           keyTimes="0;.1;1"
           values="#5f93f8; #5f93f8; #e6e6e6"
           style="fill-opacity:1.0;fill:url(#linearGradient4523)" />
      </path>
      <path
         id="key-5"
         d="m 507.53978,542.93778 0.24437,24.98499 c 0.1731,17.66808 14.63584,31.8498 34.68655,31.65432 20.05071,-0.19548 34.23243,-14.65822 34.05933,-32.3263 l -0.24437,-24.98499 c -0.17106,-17.66809 -14.6338,-31.85184 -34.68452,-31.65535 -20.05071,0.1965 -34.23446,14.65924 -34.06136,32.32733 z"
         fill="#e6e6e6"
         data-darkreader-inline-fill=""
         style="fill:#929292;fill-opacity:1;stroke-width:1;stroke-miterlimit:4;stroke-dasharray:none"
         sodipodi:nodetypes="ccccccc">
        <animate
           attributeName="fill"
           restart="always"
           dur="4s"
           keyTimes="0;.1;1"
           values="#5f93f8; #5f93f8; #e6e6e6"
           style="fill-opacity:1.0;fill:url(#linearGradient4523)" />
      </path>
    </g>
    <g
       id="g3928"
       style="fill:#929292;fill-opacity:1;stroke-width:1;stroke-miterlimit:4;stroke-dasharray:none"
       transform="translate(-1.56805,-9.89706)">
      <path
         id="neck-3"
         d="m 436.79412,224.50496 0.59056,-24.64083 79.64487,9.28613 -0.5702,24.64084 z"
         fill="#e6e6e6"
         data-darkreader-inline-fill=""
         style="fill:#929292;fill-opacity:1;stroke-width:1;stroke-miterlimit:4;stroke-dasharray:none">
        <animate
           attributeName="fill"
           restart="always"
           dur="4s"
           keyTimes="0;.1;1"
           values="#5f93f8; #5f93f8; #e6e6e6"
           style="fill-opacity:1.0;fill:url(#linearGradient4515)" />
      </path>
      <path
         id="key-3"
         d="m 538.29906,174.95243 c -20.04969,0.19548 -34.23344,14.65823 -34.06034,32.32631 l 0.32379,33.08999 c 0.17106,17.66809 14.63584,31.85184 34.68553,31.65534 20.0497,-0.19649 34.23345,-14.65923 34.06035,-32.32732 l -0.32379,-33.08999 c -0.1731,-17.66809 -14.63584,-31.8498 -34.68554,-31.65433 z"
         fill="#e6e6e6"
         data-darkreader-inline-fill=""
         style="fill:#929292;fill-opacity:1;stroke-width:1;stroke-miterlimit:4;stroke-dasharray:none"
         sodipodi:nodetypes="ccccccc">
        <animate
           attributeName="fill"
           restart="always"
           dur="4s"
           keyTimes="0;.1;1"
           values="#5f93f8; #5f93f8; #e6e6e6"
           style="fill-opacity:1.0;fill:url(#linearGradient4515)" />
      </path>
    </g>
    <path
       d="M 400.48453,835.19028 196.2711,834.76263 c 0,2.78991 -0.0776,7.75928 -0.0776,7.75928 l 204.19966,-2e-5 c 0,0 0.13216,-4.56206 0.0914,-7.33161 z"
       fill="#594436"
       data-darkreader-inline-fill=""
       id="path14"
       sodipodi:nodetypes="cccccc"
       style="stroke-width:2.03643" />
    <path
       d="m 203.41898,44.504713 c -30.82703,16.534505 -71.83661,-1.333482 -99.54062,11.673166 21.41877,145.718621 40.58002,294.049441 23.98131,441.491801 -5.28486,56.1727 -14.96082,111.78961 -24.69425,167.31559 18.76876,26.4951 47.46062,47.21549 67.16111,75.77867 17.72669,25.70141 20.40889,52.09101 20.46377,80.85785 31.84427,12.54513 73.01047,2.97053 108.31235,6.31803 35.10905,-3.42763 75.90472,6.27213 107.67675,-5.75139 0.91724,-28.04173 3.77032,-55.05247 19.16511,-80.9996 17.78574,-29.97696 46.26407,-48.69876 64.71324,-75.22607 -24.54729,-131.82788 -38.23318,-266.65971 -24.60366,-400.58375 5.3194,-69.86645 16.4149,-139.32328 26.1437,-208.493034 C 464.34434,44.085324 423.53453,61.469465 392.74609,44.932364 352.65765,27.855627 309.13449,1.9409271 264.37005,19.110034 243.44494,26.046352 223.99881,36.67621 203.41898,44.504713 Z"
       fill="#edab5a"
       data-darkreader-inline-fill=""
       id="path896"
       style="fill:#a9640f;fill-opacity:1;stroke-width:2.03643"
       sodipodi:nodetypes="ccccssscscccscc" />
    <path
       id="path896-3"
       style="fill:#ffffff;fill-opacity:0.13217819;stroke-width:2.03643"
       d="m 485.97324,639.16495 c -27.59645,6.61209 -56.81981,24.9836 -75.15234,45.8086 -24.09713,25.08964 -45.53111,54.14756 -76.86768,70.81498 -30.53601,16.88835 -69.74874,25.04805 -102.27832,8.997 -26.57337,-15.02514 -40.86358,-48.86897 -73.17334,-54.03952 -5.87236,-1.86443 -11.12728,-1.57174 -13.16601,0.44092 8.93054,9.23378 17.59357,18.85245 24.99023,29.57666 17.72669,25.70141 20.40899,52.09106 20.46387,80.85791 7.13888,2.81235 14.76368,4.4712 22.66846,5.45505 14.60139,0.35505 29.20479,0.57465 43.80908,0.70463 14.23392,-0.5358 28.45831,-1.11023 41.83447,0.15817 12.29995,-1.20082 25.31118,-0.77497 38.37451,-0.25192 15.96691,-0.1347 31.93214,-0.28328 47.89746,-0.4761 7.44428,-0.92663 14.63815,-2.46188 21.40577,-5.0229 0.91723,-28.04175 3.76975,-55.05293 19.16455,-81.00004 17.78574,-29.97696 46.26469,-48.69827 64.71387,-75.22559 -1.65885,-8.90859 -3.13001,-17.86302 -4.68458,-26.79785 z" />
    <path
       d="m 197.45223,515.49078 c 5.9362,0.0122 11.73596,1.78391 16.66616,5.09311 4.92817,3.30717 8.76684,8.00318 11.02728,13.4934 2.26044,5.49022 2.84286,11.52621 1.67395,17.34633 -1.17095,5.82013 -4.04028,11.16373 -8.24755,15.35267 -4.20523,4.18894 -9.56105,7.03791 -15.38525,8.18442 -5.82623,1.14651 -11.86018,0.53965 -17.34022,-1.74522 -5.48004,-2.28285 -10.15976,-6.13985 -13.4486,-11.08227 -3.28883,-4.94242 -5.03609,-10.75033 -5.02387,-16.68653 0.008,-3.94253 0.79217,-7.84433 2.30727,-11.4814 1.51715,-3.63911 3.73482,-6.94423 6.52677,-9.726 2.79398,-2.78177 6.10726,-4.98519 9.75247,-6.48604 3.64522,-1.50289 7.54906,-2.27062 11.49159,-2.26247 z"
       fill="#75787a"
       data-darkreader-inline-fill=""
       id="path22"
       style="stroke-width:2.03643" />
    <path
       d="m 197.73733,577.09285 h -0.40729 c -6.23555,-0.0183 -12.32448,-1.8837 -17.50109,-5.36192 -5.17458,-3.47823 -9.20264,-8.41047 -11.57509,-14.17765 -2.37448,-5.76514 -2.98541,-12.10455 -1.75744,-18.21792 1.22797,-6.11337 4.23986,-11.72374 8.65688,-16.12651 2.92431,-2.95893 6.41476,-5.29879 10.26362,-6.8811 3.84885,-1.58027 7.9767,-2.37041 12.13713,-2.32357 8.37178,-0.0387 16.41365,3.25218 22.36003,9.14358 5.94638,5.89344 9.30853,13.9068 9.34722,22.27857 0.0367,8.37177 -3.25218,16.41568 -9.14561,22.36206 -5.8914,5.94639 -13.90476,9.3065 -22.27654,9.34519 z m -0.63129,-60.03402 c -7.56128,0.0326 -14.80079,3.06687 -20.12403,8.43694 -5.32323,5.37007 -8.29642,12.63402 -8.26384,20.1953 0.0326,7.56127 3.06687,14.80079 8.43694,20.12402 5.36804,5.32323 12.63403,8.29643 20.1953,8.26384 h 0.34619 c 3.74296,-0.0163 7.44724,-0.76977 10.90102,-2.21767 3.45176,-1.44587 6.58583,-3.55969 9.22301,-6.21927 2.63514,-2.65754 4.72248,-5.80994 6.13984,-9.27595 1.41736,-3.46397 2.14029,-7.17435 2.124,-10.91935 -0.0163,-3.74296 -0.76977,-7.44723 -2.21768,-10.90102 -1.4479,-3.45175 -3.56172,-6.58582 -6.21926,-9.223 -2.65958,-2.63514 -5.81198,-4.72249 -9.27595,-6.13984 -3.46601,-1.4194 -7.17639,-2.14029 -10.91935,-2.124 z"
       fill="#3f3f3f"
       data-darkreader-inline-fill=""
       id="path24"
       style="stroke-width:2.03643" />
    <path
       d="m 197.43187,530.78438 c 2.91006,0.008 5.75495,0.87974 8.17016,2.50278 2.41725,1.62303 4.29687,3.92624 5.40469,6.6184 1.10782,2.69217 1.39292,5.65314 0.81865,8.50618 -0.57427,2.85508 -1.98145,5.47393 -4.04435,7.52869 -2.06291,2.05476 -4.68787,3.44972 -7.54499,4.01381 -2.85711,0.56205 -5.81605,0.26473 -8.5021,-0.85327 -2.68809,-1.12003 -4.98315,-3.00984 -6.59804,-5.4332 -1.61286,-2.42132 -2.47223,-5.26825 -2.46816,-8.18035 0.0102,-3.90587 1.57213,-7.64884 4.33964,-10.40617 2.76751,-2.75732 6.51862,-4.30298 10.4245,-4.29687 z"
       fill="#75787a"
       data-darkreader-inline-fill=""
       id="path26"
       style="stroke-width:2.03643" />
    <path
       d="m 197.55405,561.75852 h -0.18328 c -4.32131,0 -8.46341,-1.71671 -11.52009,-4.77136 -3.05465,-3.05465 -4.77137,-7.19879 -4.77137,-11.5201 0,-4.32131 1.71672,-8.46545 4.77137,-11.5201 3.05668,-3.05465 7.19878,-4.77136 11.52009,-4.77136 4.32131,-0.0143 8.46953,1.69024 11.53436,4.73471 3.06483,3.0465 4.79579,7.18453 4.80801,11.50584 0.0143,4.32131 -1.69024,8.46952 -4.7347,11.53435 -3.04651,3.06483 -7.18454,4.79376 -11.50585,4.80802 z m -0.26473,-29.46718 c -3.51081,0 -6.87704,1.39496 -9.35945,3.87737 -2.48241,2.48241 -3.87736,5.84863 -3.87736,9.35944 0,3.51081 1.39495,6.87703 3.87736,9.35944 2.48241,2.48242 5.84864,3.87737 9.35945,3.87737 h 0.16291 c 3.51081,-0.0142 6.87296,-1.42143 9.34519,-3.91198 2.47223,-2.4926 3.85496,-5.86493 3.84071,-9.37574 -0.0122,-3.51081 -1.42143,-6.87296 -3.91199,-9.34519 -2.49259,-2.47223 -5.86492,-3.85496 -9.37573,-3.84071 z"
       fill="#3f3f3f"
       data-darkreader-inline-fill=""
       id="path28"
       style="stroke-width:2.03643" />
    <path
       d="m 399.40522,515.99988 c 5.9362,0.0122 11.73596,1.78392 16.66616,5.09312 4.93021,3.30717 8.76684,8.00318 11.02932,13.4934 2.26044,5.49022 2.84286,11.52621 1.67191,17.34633 -1.17095,5.82013 -4.04028,11.16372 -8.24551,15.35266 -4.20727,4.18895 -9.56105,7.03791 -15.38728,8.18443 -5.8242,1.14651 -11.85815,0.53965 -17.33819,-1.74319 -5.48004,-2.28488 -10.1618,-6.14188 -13.4486,-11.0843 -3.28884,-4.94242 -5.03813,-10.75033 -5.02591,-16.68653 0.006,-3.94253 0.7881,-7.84637 2.3032,-11.48548 1.51511,-3.6391 3.73278,-6.94627 6.52677,-9.72803 2.79195,-2.78177 6.10726,-4.98519 9.75451,-6.48604 3.64521,-1.50085 7.55109,-2.26655 11.49362,-2.25637 z"
       fill="#75787a"
       data-darkreader-inline-fill=""
       id="path30"
       style="stroke-width:2.03643" />
    <path
       d="m 399.66996,577.45941 h -0.38692 c -4.14618,0.0183 -8.25366,-0.78199 -12.0903,-2.35208 -3.83664,-1.57009 -7.32505,-3.88144 -10.26769,-6.79965 -2.94469,-2.9182 -5.28455,-6.38828 -6.88518,-10.21067 -1.60267,-3.82442 -2.43761,-7.92376 -2.4539,-12.06993 -0.0183,-4.14414 0.78199,-8.25366 2.35208,-12.08826 1.57009,-3.83664 3.8794,-7.32709 6.79964,-10.26973 2.91821,-2.94265 6.38829,-5.28251 10.21068,-6.88518 3.82238,-1.60267 7.92375,-2.43557 12.06993,-2.4539 h 0.38692 c 8.37177,-0.0346 16.41365,3.25625 22.35799,9.15173 5.94435,5.89547 9.30446,13.90883 9.33908,22.2806 0.0346,8.37177 -3.25625,16.41365 -9.15173,22.35799 -5.89547,5.94435 -13.90883,9.30446 -22.2806,9.33908 z m -0.6313,-60.03402 c -7.62644,0.0489 -14.92297,3.11777 -20.28897,8.53672 -5.36804,5.41895 -8.3677,12.74399 -8.34326,20.37043 0.0244,7.62644 3.07094,14.93112 8.47155,20.31545 5.40062,5.38433 12.71752,8.40843 20.34396,8.40843 7.62644,0 14.94131,-3.0241 20.34193,-8.40843 5.40265,-5.38433 8.44915,-12.68901 8.47359,-20.31545 0.0244,-7.62644 -2.97726,-14.95148 -8.34326,-20.37043 -5.36804,-5.41895 -12.66254,-8.48785 -20.28898,-8.53672 z"
       fill="#3f3f3f"
       data-darkreader-inline-fill=""
       id="path32"
       style="stroke-width:2.03643" />
    <path
       d="m 399.36449,531.21203 c 2.9121,0.004 5.757,0.8716 8.17628,2.4926 2.41928,1.621 4.30298,3.9242 5.41284,6.61433 1.11189,2.69216 1.39902,5.65313 0.82679,8.50821 -0.57224,2.85508 -1.97738,5.47801 -4.04028,7.53277 -2.06087,2.05679 -4.68787,3.45582 -7.54295,4.01991 -2.85711,0.56409 -5.81809,0.26881 -8.50618,-0.84919 -2.69012,-1.118 -4.98518,-3.00781 -6.60007,-5.4332 -1.6149,-2.42336 -2.47427,-5.27029 -2.4702,-8.18239 0.002,-1.93257 0.38693,-3.84682 1.12819,-5.63277 0.74329,-1.78595 1.82871,-3.40695 3.19923,-4.77136 1.36848,-1.36644 2.99356,-2.44779 4.77951,-3.18701 1.78799,-0.73719 3.70223,-1.11393 5.63684,-1.1119 z"
       fill="#75787a"
       data-darkreader-inline-fill=""
       id="path34"
       style="stroke-width:2.03643" />
    <path
       d="m 399.50704,562.1658 h -0.20364 c -4.32131,0 -8.46545,-1.71671 -11.5201,-4.77136 -3.05465,-3.05465 -4.77136,-7.19879 -4.77136,-11.52009 0.0428,-4.30706 1.7717,-8.42676 4.8182,-11.47326 3.0465,-3.04651 7.16621,-4.77544 11.47326,-4.8182 4.08712,0.30546 7.90747,2.14029 10.70349,5.13792 2.79398,2.99762 4.35593,6.93812 4.37425,11.03746 0.0183,4.0973 -1.50899,8.05205 -4.27854,11.07412 -2.76751,3.02206 -6.5736,4.88947 -10.65665,5.23159 z m -0.2851,-29.44681 c -3.51081,0.0143 -6.87296,1.42143 -9.34519,3.91403 -2.47222,2.49055 -3.85496,5.86288 -3.84071,9.37369 0.0122,3.51081 1.42143,6.87296 3.91199,9.34519 2.49259,2.47223 5.86493,3.85497 9.37573,3.84071 1.73097,0.0143 3.44768,-0.31768 5.04832,-0.97341 1.60267,-0.65777 3.05668,-1.62915 4.27854,-2.85508 1.85112,-1.84297 3.11575,-4.19505 3.633,-6.75688 0.51522,-2.56183 0.26066,-5.21938 -0.73312,-7.63662 -0.99378,-2.41725 -2.68198,-4.48626 -4.85078,-5.94231 -2.1688,-1.45809 -4.72248,-2.24008 -7.33523,-2.24822 z"
       fill="#3f3f3f"
       data-darkreader-inline-fill=""
       id="path36"
       style="stroke-width:2.03643" />
    <path
       d="m 196.5562,348.62551 c 5.94231,0.008 11.74818,1.77781 16.68449,5.08701 4.93631,3.3092 8.77906,8.00929 11.04561,13.50358 2.26451,5.49226 2.84897,11.53639 1.67802,17.36263 -1.17095,5.82623 -4.04232,11.1739 -8.25366,15.36691 -4.20931,4.19302 -9.5692,7.04402 -15.40154,8.19053 -5.8303,1.14652 -11.87036,0.53762 -17.35447,-1.74929 -5.48412,-2.28691 -10.16791,-6.15003 -13.45675,-11.10059 -3.28884,-4.94853 -5.0361,-10.76255 -5.0198,-16.70486 0.0204,-7.96041 3.20127,-15.58481 8.84015,-21.20129 5.64092,-5.61648 13.27754,-8.76481 21.23795,-8.75463 z"
       fill="#75787a"
       data-darkreader-inline-fill=""
       id="path38"
       style="stroke-width:2.03643" />
    <path
       d="m 196.82094,410.1054 h -0.38693 c -8.26791,-0.0509 -16.17945,-3.37844 -21.99754,-9.25151 -5.82012,-5.87307 -9.0723,-13.81515 -9.04787,-22.08307 0.0265,-8.26791 3.32753,-16.18964 9.18431,-22.02605 5.85475,-5.83845 13.78665,-9.11711 22.05457,-9.11711 8.26791,0 16.19981,3.27866 22.05456,9.11711 5.85678,5.83641 9.15783,13.75814 9.18431,22.02605 0.0265,8.26792 -3.22775,16.21 -9.04787,22.08307 -5.81809,5.87307 -13.72963,9.2006 -21.99754,9.25151 z m -0.6313,-60.03402 c -7.57756,0.0489 -14.82726,3.09945 -20.15864,8.48378 -5.33342,5.38432 -8.31475,12.66253 -8.29032,20.2401 0.0244,7.57756 3.05262,14.83744 8.41861,20.18715 5.36804,5.34971 12.63607,8.35345 20.21363,8.35345 7.57757,0 14.84763,-3.00374 20.21363,-8.35345 5.36803,-5.34971 8.39417,-12.60959 8.41861,-20.18715 0.0244,-7.57757 -2.9569,-14.85578 -8.28828,-20.2401 -5.33342,-5.38433 -12.58312,-8.43491 -20.16068,-8.48378 z"
       fill="#3f3f3f"
       data-darkreader-inline-fill=""
       id="path40"
       style="stroke-width:2.03643" />
    <path
       d="m 196.53584,363.91912 c 2.91209,0.008 5.75495,0.87974 8.17016,2.50277 2.41725,1.62304 4.29687,3.92625 5.40469,6.61841 1.10782,2.69216 1.39292,5.65314 0.81865,8.50618 -0.57427,2.85508 -1.98145,5.47393 -4.04436,7.52869 -2.0629,2.05476 -4.68786,3.44971 -7.54498,4.01381 -2.85711,0.56205 -5.81605,0.26473 -8.5021,-0.85327 -2.68809,-1.12004 -4.98315,-3.00985 -6.59804,-5.4332 -1.61286,-2.42132 -2.47223,-5.27029 -2.46816,-8.18035 0.002,-1.93461 0.38692,-3.85089 1.13022,-5.63684 0.7433,-1.78799 1.83279,-3.40899 3.20331,-4.77544 1.37256,-1.36644 2.99966,-2.44779 4.78765,-3.18294 1.79003,-0.73719 3.70835,-1.11393 5.64296,-1.10782 z"
       fill="#75787a"
       data-darkreader-inline-fill=""
       id="path42"
       style="stroke-width:2.03643" />
    <path
       d="m 196.67839,394.89325 h -0.20365 c -4.08712,-0.3075 -7.90746,-2.14436 -10.69941,-5.14402 -2.79195,-2.99967 -4.35186,-6.9422 -4.36815,-11.0395 -0.0143,-4.09934 1.51511,-8.05206 4.28465,-11.07209 2.76955,-3.02206 6.57564,-4.88743 10.66073,-5.22548 h 0.18328 c 4.08712,0.30546 7.9095,2.14029 10.70348,5.13792 2.79399,2.99763 4.35593,6.93812 4.37426,11.03746 0.0183,4.0973 -1.509,8.05205 -4.27651,11.07412 -2.76955,3.02207 -6.5736,4.88947 -10.65868,5.23159 z m -0.30547,-29.44681 c -3.51081,0.0143 -6.87296,1.42143 -9.34519,3.91199 -2.47223,2.49259 -3.85496,5.86493 -3.84071,9.37573 0.0143,3.51081 1.42143,6.87296 3.91403,9.34519 2.49055,2.47223 5.86288,3.85497 9.37369,3.84071 1.73708,0.0265 3.46397,-0.29935 5.07072,-0.96119 1.60674,-0.66184 3.06279,-1.64544 4.27651,-2.88766 1.85519,-1.84094 3.12185,-4.19098 3.64114,-6.75281 0.51725,-2.56183 0.2627,-5.21938 -0.73312,-7.63662 -0.99378,-2.41725 -2.68402,-4.48423 -4.85485,-5.94028 -2.17084,-1.45401 -4.72656,-2.23193 -7.3393,-2.23396 z"
       fill="#3f3f3f"
       data-darkreader-inline-fill=""
       id="path44"
       style="stroke-width:2.03643" />
    <path
       d="m 400.99364,349.01244 c 5.94231,0.008 11.74818,1.7778 16.68449,5.087 4.93631,3.30921 8.78109,8.00929 11.04561,13.50359 2.26451,5.49225 2.84897,11.53638 1.67802,17.36262 -1.17095,5.82623 -4.04232,11.1739 -8.25366,15.36692 -4.20931,4.19301 -9.5692,7.04401 -15.3995,8.19053 -5.83235,1.14651 -11.8724,0.53761 -17.35652,-1.7493 -5.48411,-2.28691 -10.1679,-6.15002 -13.45674,-11.10059 -3.28884,-4.94853 -5.0361,-10.76255 -5.01981,-16.70486 0.0224,-7.95837 3.20128,-15.58481 8.84016,-21.20129 5.64091,-5.61648 13.27754,-8.76481 21.23795,-8.75462 z"
       fill="#75787a"
       data-darkreader-inline-fill=""
       id="path46"
       style="stroke-width:2.03643" />
    <path
       d="m 401.25838,410.61451 h -0.38693 c -4.14414,-0.008 -8.24755,-0.8329 -12.074,-2.42539 -3.82646,-1.59453 -7.30265,-3.92624 -10.22697,-6.86278 -2.92635,-2.93653 -5.24381,-6.42087 -6.82205,-10.25343 -1.58027,-3.83257 -2.38873,-7.94005 -2.38058,-12.08419 0.008,-4.14414 0.8329,-8.24755 2.42539,-12.07401 1.59452,-3.82645 3.92624,-7.30264 6.86277,-10.22696 2.93654,-2.92635 6.42087,-5.24381 10.25344,-6.82409 3.83257,-1.57823 7.94005,-2.38669 12.08419,-2.37855 v 0 c 8.37177,-0.0326 16.41364,3.26237 22.35595,9.15784 5.94231,5.8975 9.29835,13.9129 9.33094,22.28468 0.0326,8.37177 -3.26237,16.41364 -9.15784,22.35595 -5.89751,5.94231 -13.91291,9.29835 -22.28468,9.33093 z m -0.59057,-60.05439 c -7.57349,0.0428 -14.82115,3.08724 -20.15457,8.46545 -5.33342,5.38026 -8.31475,12.65236 -8.29439,20.22788 0.0224,7.5735 3.0465,14.83134 8.40843,20.17901 5.36396,5.34767 12.62995,8.35141 20.20344,8.35141 7.57553,0 14.83949,-3.00374 20.20345,-8.35141 5.36396,-5.34767 8.38603,-12.60551 8.40843,-20.17901 0.0224,-7.57552 -2.96097,-14.84762 -8.29439,-20.22788 -5.33138,-5.37821 -12.58108,-8.42268 -20.15457,-8.46545 z"
       fill="#3f3f3f"
       data-darkreader-inline-fill=""
       id="path48"
       style="stroke-width:2.03643" />
    <path
       d="m 400.97327,364.34677 c 2.9121,0.008 5.75496,0.87974 8.17017,2.50278 2.41725,1.62303 4.29891,3.92624 5.40469,6.6184 1.10782,2.69216 1.39292,5.65314 0.81865,8.50618 -0.57428,2.85508 -1.98145,5.47393 -4.04436,7.52869 -2.0629,2.05476 -4.68786,3.45175 -7.54498,4.01381 -2.85508,0.56205 -5.81401,0.26473 -8.5021,-0.85327 -2.68809,-1.118 -4.98315,-3.00985 -6.59804,-5.4332 -1.61286,-2.42132 -2.47223,-5.26825 -2.46816,-8.18035 0.002,-1.93461 0.38692,-3.85089 1.13022,-5.63684 0.7433,-1.78799 1.83279,-3.40899 3.20331,-4.77544 1.37255,-1.36644 2.99966,-2.44779 4.78765,-3.18294 1.79002,-0.73719 3.70834,-1.11393 5.64295,-1.10782 z"
       fill="#75787a"
       data-darkreader-inline-fill=""
       id="path50"
       style="stroke-width:2.03643" />
    <path
       d="m 401.09546,395.32091 h -0.18328 c -4.32131,0.0183 -8.47156,-1.68006 -11.54046,-4.72045 -3.0689,-3.04243 -4.80394,-7.17843 -4.82227,-11.49974 -0.0183,-4.32131 1.67802,-8.47156 4.72045,-11.54046 3.04243,-3.0689 7.17842,-4.80394 11.49973,-4.82227 h 0.20364 c 2.13826,-0.008 4.25818,0.40525 6.23963,1.21779 1.97942,0.8105 3.77962,2.00384 5.29676,3.5108 1.51918,1.50696 2.72679,3.29902 3.55154,5.27233 0.82679,1.9733 1.25648,4.08915 1.26463,6.22944 0.008,2.14029 -0.40525,4.26022 -1.21779,6.23963 -0.8105,1.97941 -2.00385,3.77962 -3.51081,5.2988 -1.50696,1.51714 -3.29902,2.72475 -5.27232,3.55154 -1.97331,0.82475 -4.0912,1.25444 -6.22945,1.26259 z m -0.2851,-29.44682 c -3.51488,0.0183 -6.87907,1.43162 -9.35537,3.92625 -2.4763,2.49666 -3.86108,5.87103 -3.85089,9.38591 0.008,3.51692 1.41124,6.88314 3.9018,9.36555 2.48852,2.48242 5.86085,3.87737 9.37574,3.87737 3.51488,0 6.88721,-1.39495 9.37573,-3.87737 2.48852,-2.48241 3.89162,-5.84863 3.9018,-9.36555 0.008,-3.51488 -1.37662,-6.88925 -3.85089,-9.38591 -2.4763,-2.49463 -5.84049,-3.90792 -9.35537,-3.92625 z"
       fill="#3f3f3f"
       data-darkreader-inline-fill=""
       id="path52"
       style="stroke-width:2.03643" />
    <path
       d="m 199.67194,184.06142 c 5.93417,0.0204 11.72985,1.79817 16.65395,5.11144 4.92205,3.31124 8.75462,8.00929 11.00895,13.49748 2.25637,5.49022 2.83268,11.52417 1.65969,17.34022 -1.17298,5.81809 -4.04435,11.15761 -8.24959,15.34248 -4.20523,4.1869 -9.55901,7.0318 -15.38117,8.17831 -5.82216,1.14448 -11.85407,0.53762 -17.33208,-1.74318 -5.478,-2.28081 -10.15772,-6.13374 -13.44656,-11.07412 -3.28884,-4.93835 -5.04017,-10.74218 -5.03202,-16.67635 0.008,-3.9466 0.79421,-7.85248 2.31135,-11.49566 1.51918,-3.64114 3.73889,-6.95034 6.53695,-9.73414 2.79602,-2.78381 6.1154,-4.98926 9.76469,-6.49011 3.64929,-1.50085 7.55924,-2.26655 11.50584,-2.25637 z"
       fill="#75787a"
       data-darkreader-inline-fill=""
       id="path54"
       style="stroke-width:2.03643" />
    <path
       d="m 199.93668,245.64313 h -0.38692 c -4.14618,-0.0102 -8.24756,-0.83494 -12.07401,-2.42946 -3.82646,-1.59453 -7.30061,-3.92828 -10.22493,-6.86685 -2.92431,-2.93654 -5.24177,-6.42087 -6.82001,-10.25547 -1.57823,-3.83257 -2.38466,-7.94005 -2.37448,-12.08419 0.008,-4.14618 0.83494,-8.24756 2.42946,-12.07401 1.59453,-3.82646 3.92828,-7.30061 6.86482,-10.22493 2.93857,-2.92431 6.4229,-5.24177 10.25547,-6.82001 3.8346,-1.5762 7.94005,-2.38466 12.08623,-2.37448 v 0 c 8.37177,-0.0326 16.4116,3.26236 22.35391,9.15784 5.94231,5.8975 9.30039,13.9129 9.33297,22.28467 0.0326,8.37178 -3.26236,16.41365 -9.15987,22.35596 -5.89547,5.94231 -13.91087,9.29835 -22.28264,9.33093 z m -0.61093,-60.05439 c -7.56127,0.0306 -14.80079,3.0628 -20.1281,8.4288 -5.32527,5.36803 -8.3005,12.63199 -8.26995,20.19326 0.0285,7.56127 3.06076,14.80079 8.42879,20.12606 5.36804,5.32731 12.63199,8.30253 20.19327,8.27199 h 0.34619 c 7.56127,-0.0305 14.80079,-3.0628 20.12606,-8.4288 5.32527,-5.36803 8.3005,-12.63199 8.27199,-20.19326 -0.0306,-7.56127 -3.0628,-14.80079 -8.43083,-20.12606 -5.36804,-5.32731 -12.62996,-8.30253 -20.19123,-8.27199 z"
       fill="#3f3f3f"
       data-darkreader-inline-fill=""
       id="path56"
       style="stroke-width:2.03643" />
    <path
       d="m 199.65158,199.37539 c 2.91006,0.008 5.75496,0.87974 8.17016,2.50277 2.41725,1.62304 4.29688,3.92625 5.4047,6.61841 1.10781,2.69216 1.39291,5.65314 0.81864,8.50618 -0.57427,2.85508 -1.98348,5.47393 -4.04435,7.52869 -2.06291,2.05476 -4.68991,3.45175 -7.54499,4.01381 -2.85711,0.56205 -5.81605,0.26473 -8.50414,-0.85327 -2.68605,-1.118 -4.98315,-3.00985 -6.596,-5.4332 -1.61286,-2.42132 -2.47223,-5.26825 -2.46816,-8.18035 0.002,-1.93461 0.38693,-3.85089 1.13022,-5.63684 0.7433,-1.78799 1.83279,-3.40899 3.20331,-4.77544 1.37052,-1.36644 2.99763,-2.44779 4.78765,-3.18294 1.79003,-0.73719 3.70631,-1.11393 5.64296,-1.10782 z"
       fill="#75787a"
       data-darkreader-inline-fill=""
       id="path58"
       style="stroke-width:2.03643" />
    <path
       d="m 199.77376,230.34952 h -0.18328 c -3.2033,-0.0244 -6.32923,-0.99581 -8.98677,-2.78787 -2.65551,-1.7941 -4.72452,-4.32946 -5.94435,-7.29246 -1.22186,-2.96301 -1.54361,-6.21927 -0.9225,-9.36352 0.61907,-3.14425 2.15454,-6.03599 4.40887,-8.31272 3.09538,-2.9793 7.20898,-4.66954 11.50585,-4.72452 4.32131,0 8.46545,1.71671 11.52009,4.77136 3.05465,3.05465 4.77137,7.19879 4.77137,11.5201 -0.0265,4.28262 -1.73708,8.38195 -4.76322,11.41216 -3.02614,3.02818 -7.12344,4.74489 -11.40606,4.77747 z m -0.2851,-29.44681 c -3.47211,0.0367 -6.7915,1.4418 -9.23929,3.90588 -2.44576,2.46612 -3.82442,5.79569 -3.8346,9.26984 -0.006,3.50266 1.37866,6.86278 3.84885,9.34519 2.4702,2.48037 5.82624,3.88144 9.32686,3.89162 h 0.16292 c 3.51081,-0.0142 6.87296,-1.42143 9.34519,-3.91199 2.47223,-2.49259 3.85496,-5.86492 3.84071,-9.37573 -0.0122,-3.51081 -1.42143,-6.87296 -3.91199,-9.34519 -2.49259,-2.47223 -5.86492,-3.85496 -9.37573,-3.84071 h -0.16292 z"
       fill="#3f3f3f"
       data-darkreader-inline-fill=""
       id="path60"
       style="stroke-width:2.03643" />
    <path
       d="m 399.12012,184.48907 c 5.94638,-0.008 11.7604,1.74929 16.70689,5.04832 4.9465,3.29902 8.8035,7.99299 11.08023,13.48525 2.27877,5.49226 2.87341,11.53639 1.71264,17.36873 -1.16077,5.83234 -4.02603,11.18816 -8.2333,15.38932 -4.20727,4.20116 -9.56716,7.06031 -15.40153,8.21293 -5.83235,1.15262 -11.87648,0.54984 -17.3667,-1.73504 -5.48818,-2.28488 -10.17605,-6.14799 -13.46896,-11.09855 -3.29291,-4.95261 -5.04221,-10.76866 -5.02592,-16.71504 0.0163,-7.94616 3.18295,-15.56242 8.80554,-21.1789 5.62462,-5.61444 13.24495,-8.77091 21.19111,-8.77702 z"
       fill="#75787a"
       data-darkreader-inline-fill=""
       id="path62"
       style="stroke-width:2.03643" />
    <path
       d="m 399.38486,246.05042 h -0.38692 c -8.37178,0.0305 -16.41161,-3.26848 -22.35189,-9.16598 -5.94231,-5.89955 -9.29631,-13.91495 -9.32482,-22.28672 -0.0306,-8.37177 3.26644,-16.41161 9.16598,-22.35188 5.89751,-5.94027 13.91494,-9.29428 22.28672,-9.32482 h 0.36656 c 6.23962,0.0143 12.33467,1.87962 17.51331,5.35785 5.17865,3.47823 9.21079,8.41454 11.58527,14.18375 2.37448,5.77125 2.98337,12.11474 1.75133,18.23218 -1.23204,6.11541 -4.25004,11.72985 -8.67317,16.13058 -5.8079,5.84863 -13.69093,9.16395 -21.93237,9.22504 z m -0.59057,-59.95257 c -7.56127,0.0265 -14.80282,3.05669 -20.13013,8.42269 -5.32731,5.36599 -8.30457,12.62791 -8.2781,20.18918 0.0265,7.56128 3.05669,14.80283 8.42269,20.13014 5.36599,5.32731 12.62791,8.30457 20.18919,8.2781 h 0.34619 c 7.56127,-0.0306 14.80079,-3.0628 20.12606,-8.4288 5.32527,-5.36803 8.3005,-12.63199 8.27199,-20.19326 -0.0306,-7.56127 -3.0628,-14.80079 -8.43083,-20.12606 -5.366,-5.32731 -12.62996,-8.30254 -20.19123,-8.27199 z"
       fill="#3f3f3f"
       data-darkreader-inline-fill=""
       id="path64"
       style="stroke-width:2.03643" />
    <path
       d="m 399.09976,199.80304 c 2.9121,0.008 5.75495,0.87974 8.1722,2.50481 2.41724,1.62304 4.29687,3.92828 5.40469,6.62248 1.10782,2.69216 1.39088,5.65314 0.81457,8.50821 -0.57631,2.85508 -1.98552,5.47393 -4.05046,7.52869 -2.06494,2.05273 -4.69194,3.44768 -7.54905,4.0077 -2.85916,0.56002 -5.81809,0.26067 -8.50618,-0.86141 -2.68606,-1.12207 -4.98112,-3.01595 -6.59193,-5.44134 -1.61082,-2.4254 -2.46612,-5.27436 -2.45798,-8.18646 0.002,-1.93461 0.38692,-3.84886 1.13022,-5.63481 0.7433,-1.78595 1.83279,-3.40695 3.20535,-4.76933 1.37052,-1.3644 2.99763,-2.44575 4.78765,-3.17887 1.79002,-0.73311 3.70631,-1.10782 5.64092,-1.09967 z"
       fill="#75787a"
       data-darkreader-inline-fill=""
       id="path66"
       style="stroke-width:2.03643" />
    <path
       d="m 399.24231,230.75681 h -0.22401 c -3.20331,-0.0285 -6.3272,-1.00192 -8.97863,-2.79602 -2.65347,-1.79613 -4.71841,-4.33149 -5.93824,-7.2945 -1.21982,-2.96097 -1.5375,-6.21723 -0.91639,-9.35944 0.62111,-3.14222 2.15454,-6.03192 4.40887,-8.30661 3.07094,-3.01799 7.20083,-4.71434 11.50585,-4.72452 4.31927,0 8.46341,1.71671 11.52009,4.77136 3.05465,3.05465 4.77137,7.19879 4.77137,11.52009 0,4.28262 -1.68617,8.39214 -4.69194,11.44068 -3.00782,3.04854 -7.09493,4.79173 -11.37552,4.85078 z M 398.93684,201.31 c -3.52506,0.0224 -6.89943,1.43976 -9.3798,3.94457 -2.48038,2.50278 -3.86923,5.88936 -3.85701,9.41443 0.0102,3.52506 1.41736,6.90147 3.91403,9.38999 2.49666,2.49055 5.87918,3.88754 9.40424,3.88754 3.52506,0 6.90554,-1.39699 9.40221,-3.88754 2.49666,-2.48852 3.90384,-5.86493 3.91606,-9.38999 0.0102,-3.52507 -1.37663,-6.91165 -3.85904,-9.41443 -2.48038,-2.50481 -5.85271,-3.92217 -9.37777,-3.94457 z"
       fill="#3f3f3f"
       data-darkreader-inline-fill=""
       id="path68"
       style="stroke-width:2.03643" />
    <path
       d="m 235.12623,213.36568 c 0.35721,14.57125 -9.23635,28.6824 -22.91375,33.71665 -13.53621,5.40316 -30.10165,1.32308 -39.58113,-9.74765 -9.77471,-10.80808 -11.717,-27.75786 -4.6399,-40.49682 6.66574,-12.79593 21.64275,-20.50085 35.92719,-18.5021 13.84426,1.58625 26.10161,12.07112 29.80718,25.50524 0.89407,3.09229 1.36642,6.30592 1.40041,9.52468 z"
       fill="#e6e6e6"
       data-darkreader-inline-fill=""
       id="path70"
       style="fill:#929292;fill-opacity:1;stroke-width:2.03643" />
    <path
       d="m 231.33846,377.80759 c 0.35257,14.56834 -9.233,28.6802 -22.90965,33.71464 -13.53354,5.40437 -30.09814,1.32968 -39.5792,-9.7374 -9.77777,-10.80461 -11.72512,-27.74961 -4.65412,-40.49103 6.72407,-12.93497 21.94326,-20.65724 36.35055,-18.4585 13.82632,1.75488 25.95531,12.38797 29.50458,25.86571 0.81937,2.96314 1.25333,6.03244 1.28784,9.10658 z"
       fill="#e6e6e6"
       data-darkreader-inline-fill=""
       id="path72"
       style="fill:#929292;fill-opacity:1;stroke-width:2.03643" />
    <path
       d="m 437.93452,379.02945 c 0.35407,14.56875 -9.23344,28.67952 -22.90931,33.71464 -13.53367,5.40479 -30.0978,1.32865 -39.57955,-9.7374 -9.77569,-10.80468 -11.72432,-27.75048 -4.65335,-40.49103 6.72364,-12.9353 21.94282,-20.65699 36.34996,-18.4585 13.82627,1.75458 25.95613,12.38778 29.50485,25.86571 0.81916,2.96318 1.25289,6.03247 1.2874,9.10658 z"
       fill="#e6e6e6"
       data-darkreader-inline-fill=""
       id="path74"
       style="fill:#929292;fill-opacity:1;stroke-width:2.03643" />
    <path
       d="m 435.22607,214.6079 c 0.35426,14.57105 -9.2355,28.68208 -22.91375,33.71665 -13.5366,5.40331 -30.10237,1.32258 -39.58258,-9.74765 -9.77582,-10.80832 -11.71649,-27.75781 -4.63845,-40.49684 6.66067,-12.79165 21.62173,-20.48522 35.89899,-18.51071 13.87226,1.56248 26.15987,12.07403 29.85094,25.53736 0.88719,3.08535 1.35473,6.29093 1.38485,9.50119 z"
       fill="#e6e6e6"
       data-darkreader-inline-fill=""
       id="path76"
       style="fill:#929292;fill-opacity:1;stroke-width:2.03643" />
    <path
       d="m 232.96761,545.44669 c 0.34759,14.56921 -9.24911,28.67486 -22.928,33.70166 -13.53665,5.39639 -30.09822,1.3113 -39.57367,-9.75988 -9.77035,-10.81066 -11.70955,-27.75658 -4.63107,-40.49403 6.66128,-12.7885 21.62332,-20.48273 35.89842,-18.50459 13.8742,1.56968 26.16036,12.08725 29.85014,25.55368 0.88671,3.08612 1.35408,6.29229 1.38418,9.50316 z"
       fill="#e6e6e6"
       data-darkreader-inline-fill=""
       id="path78"
       style="fill:#929292;fill-opacity:1;stroke-width:2.03643" />
    <path
       d="m 435.24643,546.70928 c 0.34635,14.57004 -9.24959,28.67546 -22.93002,33.70166 -13.53669,5.39678 -30.09762,1.31017 -39.57369,-9.75988 -9.77088,-10.81057 -11.70836,-27.75714 -4.62903,-40.49403 6.66112,-12.78785 21.62219,-20.48283 35.89696,-18.50459 13.8752,1.56941 26.16013,12.08682 29.85094,25.55367 0.88734,3.086 1.35475,6.29226 1.38484,9.50317 z"
       fill="#e6e6e6"
       data-darkreader-inline-fill=""
       id="path80"
       style="fill:#929292;fill-opacity:1;stroke-width:2.03643" />
    <path
       d="m 409.70957,828.22568 c -0.62447,7.40459 -9.36303,9.37169 -15.54564,8.81101 C 328.43057,836.86677 262.695,836.8117 196.96302,836.57 c -6.01718,0.14648 -13.82737,-5.8244 -10.10532,-12.25522 4.86817,-7.2009 14.31748,-5.02024 21.73862,-5.3541 63.33905,0.16748 126.6818,0.18338 190.01853,0.44561 4.85403,0.35298 10.94362,3.25382 11.09472,8.81939 z"
       fill="#b5b5b5"
       data-darkreader-inline-fill=""
       id="path82"
       style="stroke-width:2.03643" />
    <path
       opacity="0.26"
       d="m 216.20777,216.80725 c 0.18845,7.72226 -4.89654,15.20012 -12.14504,17.86789 -7.17335,2.86135 -15.95219,0.69829 -20.97518,-5.16813 -5.17967,-5.72836 -6.2086,-14.71022 -2.45711,-21.46114 3.52841,-6.78014 11.45913,-10.85492 19.02476,-9.80848 7.35156,0.82843 13.86234,6.39924 15.81841,13.534 0.4702,1.63533 0.71773,3.33436 0.73416,5.03586 z"
       fill="#adadad"
       data-darkreader-inline-fill=""
       id="path85"
       style="stroke-width:2.03643" />
    <path
       id="string-2"
       d="m 288.70476,822.95132 c 0.0102,-0.10793 0.0102,-0.21789 0,-0.32582 l -77.24188,-595.5139 -4.07286,0.52947 77.22151,595.1677 c 0.0102,0.10793 0.0102,0.2179 0,0.32583 v 19.38729 h 4.09323 c 0.0295,-6.52092 0.0163,-13.04779 2e-5,-19.57057 z"
       fill="#ebffff"
       data-darkreader-inline-fill=""
       sodipodi:nodetypes="cccccccccc"
       style="stroke-width:2.03643">
      <animate
         attributeName="fill"
         restart="always"
         dur="4s"
         keyTimes="0;.1;1"
         values="#5f93f8; #5f93f8; #ebffff;" />
    </path>
    <path
       opacity="0.26"
       d="m 416.30761,218.0902 c 0.18769,7.71375 -4.89057,15.18363 -12.13208,17.84753 -7.16531,2.86202 -15.93479,0.7002 -20.95217,-5.16058 -5.17582,-5.72174 -6.20262,-14.69383 -2.45553,-21.43791 3.56275,-6.84678 11.62237,-10.92807 19.24884,-9.76394 7.31805,0.92894 13.73727,6.55965 15.61184,13.69428 0.4328,1.56868 0.66153,3.19343 0.6791,4.82062 z"
       fill="#adadad"
       data-darkreader-inline-fill=""
       id="path87"
       style="stroke-width:2.03643" />
    <path
       id="string-3"
       d="m 326.3584,822.80877 1.58841,-28.77478 57.02011,-578.10241 c -3.21356,-3.19802 0,0 -3.21356,-3.19802 l -57.87941,580.9746 -1.58842,28.97843 0.14011,19.8353 h 3.93276 z"
       fill="#ebffff"
       data-darkreader-inline-fill=""
       sodipodi:nodetypes="ccccccccc"
       style="stroke-width:2.03643">
      <animate
         attributeName="fill"
         restart="always"
         dur="4s"
         keyTimes="0;.1;1"
         values="#5f93f8; #5f93f8; #ebffff;" />
    </path>
    <path
       opacity="0.26"
       d="m 212.31819,381.22879 c 0.18768,7.71375 -4.89057,15.18362 -12.13206,17.84752 -7.16482,2.86038 -15.93497,0.69961 -20.9522,-5.16057 -5.17373,-5.72205 -6.20261,-14.69426 -2.45535,-21.43791 3.52686,-6.77002 11.44614,-10.84421 19.00384,-9.79861 7.34421,0.82644 13.84985,6.39169 15.80227,13.51989 0.4694,1.63338 0.71705,3.33025 0.7335,5.02968 z"
       fill="#adadad"
       data-darkreader-inline-fill=""
       id="path91"
       style="stroke-width:2.03643" />
    <path
       id="string-1"
       d="m 247.54847,842.52189 v -20.50732 c 0.0102,-0.1283 0.0102,-0.25863 0,-0.38693 L 210.4854,388.0513 l -6.04821,0.52947 37.06307,433.16906 c 0.0102,0.12829 0.0102,0.25863 0,0.38692 v 20.38514 z"
       fill="#ebffff"
       data-darkreader-inline-fill=""
       sodipodi:nodetypes="ccccccccc"
       style="stroke-width:2.03643">
      <animate
         attributeName="fill"
         restart="always"
         dur="4s"
         keyTimes="0;.1;1"
         values="#5f93f8; #5f93f8; #ebffff;" />
    </path>
    <path
       opacity="0.26"
       d="m 418.9957,382.47102 c 0.17848,7.71228 -4.90334,15.1762 -12.14667,17.83252 -7.16583,2.85373 -15.93099,0.68786 -20.94496,-5.17272 -5.17071,-5.72355 -6.19373,-14.69325 -2.44703,-21.43501 3.52881,-6.76831 11.44749,-10.84034 19.00452,-9.79466 7.34971,0.82727 13.85608,6.40245 15.80574,13.53598 0.46812,1.63497 0.71335,3.33334 0.7284,5.03389 z"
       fill="#adadad"
       data-darkreader-inline-fill=""
       id="path93"
       style="stroke-width:2.03643" />
    <path
       id="string-4"
       d="m 360.13635,842.52189 -0.0343,-20.52769 v -0.12218 l 30.54648,-432.13094 -3.03896,-1.2058 -30.52139,433.23496 v 0.12219 20.62951 z"
       fill="#ebffff"
       data-darkreader-inline-fill=""
       sodipodi:nodetypes="ccccccccc"
       style="stroke-width:2.03643">
      <animate
         attributeName="fill"
         restart="always"
         dur="4s"
         keyTimes="0;.1;1"
         values="#5f93f8; #5f93f8; #ebffff;" />
    </path>
    <path
       opacity="0.26"
       d="m 214.04915,548.8679 c 0.19587,7.7237 -4.88322,15.20762 -12.1308,17.88254 -7.1728,2.86805 -15.95578,0.71317 -20.98211,-5.15427 -5.18499,-5.7263 -6.21642,-14.7108 -2.46645,-21.46414 3.52744,-6.78138 11.45797,-10.85958 19.02477,-9.81371 7.34683,0.82672 13.85416,6.39042 15.81623,13.51792 0.47154,1.63372 0.72054,3.33136 0.73836,5.03166 z"
       fill="#adadad"
       data-darkreader-inline-fill=""
       id="path96"
       style="stroke-width:2.03643" />
    <path
       id="string-0"
       d="m 216.10595,823.64371 c -2.82501,-88.57257 -7.92783,-270.28919 -7.92783,-270.28919 l -7.94209,6.59972 c 0,0 5.71978,174.46027 8.28798,261.69448 l -0.65046,20.87317 8.16907,2e-5 c -1e-5,-5.52199 0.0634,-13.35621 0.0634,-18.8782 z"
       fill="#ebffff"
       data-darkreader-inline-fill=""
       sodipodi:nodetypes="cccccccc"
       style="stroke-width:2.03643">
      <animate
         attributeName="fill"
         restart="always"
         dur="4s"
         keyTimes="0;.1;1"
         values="#5f93f8; #5f93f8; #ebffff;" />
    </path>
    <path
       opacity="0.26"
       d="m 416.30761,550.13049 c 0.18769,7.71375 -4.89057,15.18363 -12.13208,17.84752 -7.1653,2.86203 -15.9348,0.70021 -20.95217,-5.16057 -5.17582,-5.72174 -6.20262,-14.69383 -2.45553,-21.43791 3.52611,-6.77059 11.44662,-10.84382 19.00401,-9.79862 7.34338,0.82761 13.85017,6.39159 15.80227,13.51989 0.4694,1.63338 0.71705,3.33026 0.7335,5.02969 z"
       fill="#adadad"
       data-darkreader-inline-fill=""
       id="path99"
       style="stroke-width:2.03643" />
    <path
       id="string-5"
       d="m 392.11479,827.10565 -0.16291,-5.62056 -4.50052,-266.34498 -2.03643,0.0407 4.52088,266.28389 0.14255,5.60019 -0.0639,15.45697 h 2.10005 z"
       fill="#ebffff"
       data-darkreader-inline-fill=""
       sodipodi:nodetypes="ccccccccc"
       style="stroke-width:2.03643">
      <animate
         attributeName="fill"
         restart="always"
         dur="4s"
         keyTimes="0;.1;1"
         values="#5f93f8; #5f93f8; #ebffff;" />
    </path>
    <path
       d="m 219.40497,212.44929 c 0.23505,8.45093 -5.98052,16.52875 -14.19796,18.50385 -7.56152,2.00296 -16.17906,-1.24591 -20.44022,-7.83156 -4.3779,-6.46974 -4.17318,-15.65604 0.62056,-21.8545 4.58986,-6.18748 13.14564,-9.07054 20.52185,-6.76092 7.21377,2.10666 12.82964,8.82773 13.41315,16.35173 0.0499,0.52899 0.0775,1.06008 0.0826,1.5914 z"
       fill="#b3b3b3"
       data-darkreader-inline-fill=""
       id="path102"
       style="stroke-width:2.03643" />
    <path
       d="m 419.50481,213.73224 c 0.18916,7.71365 -4.89051,15.18233 -12.13038,17.84752 -7.16556,2.86059 -15.93528,0.69865 -20.95387,-5.16058 -5.17346,-5.72196 -6.20338,-14.69484 -2.4546,-21.4379 3.5265,-6.77024 11.44553,-10.84431 19.00316,-9.79862 7.34502,0.82543 13.84879,6.39263 15.80309,13.51989 0.46946,1.63335 0.71615,3.33033 0.7326,5.02969 z"
       fill="#b3b3b3"
       data-darkreader-inline-fill=""
       id="path104"
       style="stroke-width:2.03643" />
    <path
       d="m 215.59684,376.87083 c 0.18613,7.71417 -4.89056,15.18371 -12.13208,17.8492 -7.16597,2.85908 -15.93471,0.69889 -20.95217,-5.16225 -5.1758,-5.72174 -6.20261,-14.69383 -2.45553,-21.43791 3.52612,-6.77059 11.44662,-10.84382 19.00401,-9.79862 7.34384,0.82725 13.84914,6.3921 15.80227,13.51989 0.4694,1.63338 0.71705,3.33026 0.7335,5.02969 z"
       fill="#b3b3b3"
       data-darkreader-inline-fill=""
       id="path106"
       style="stroke-width:2.03643" />
    <path
       d="m 422.1929,378.11305 c 0.17976,7.7114 -4.90412,15.17432 -12.14463,17.83253 -7.16609,2.85347 -15.93181,0.68897 -20.94564,-5.17272 -5.17106,-5.72288 -6.19479,-14.69393 -2.44655,-21.43502 3.52702,-6.76948 11.44671,-10.8399 19.00315,-9.79465 7.34952,0.82758 13.85605,6.40234 15.80568,13.53597 0.46855,1.63484 0.71434,3.33328 0.72799,5.03389 z"
       fill="#b3b3b3"
       data-darkreader-inline-fill=""
       id="path108"
       style="stroke-width:2.03643" />
    <path
       d="m 217.24635,544.50994 c 0.18769,7.71375 -4.89057,15.18363 -12.13208,17.84752 -7.1653,2.86202 -15.9348,0.70021 -20.95217,-5.16058 -5.1758,-5.72174 -6.20262,-14.69383 -2.45553,-21.43791 3.56276,-6.84678 11.62237,-10.92807 19.24884,-9.76393 7.31844,0.92887 13.73756,6.56016 15.61184,13.69517 0.43272,1.5684 0.66152,3.19283 0.6791,4.81973 z"
       fill="#b3b3b3"
       data-darkreader-inline-fill=""
       id="path110"
       style="stroke-width:2.03643" />
    <path
       d="m 419.50481,545.77252 c 0.18916,7.71365 -4.8905,15.18234 -12.13038,17.84753 -7.166,2.8623 -15.93514,0.6992 -20.95387,-5.16058 -5.17347,-5.72196 -6.20338,-14.69484 -2.4546,-21.43791 3.5265,-6.77024 11.44553,-10.8443 19.00316,-9.79861 7.34451,0.82624 13.84904,6.39246 15.80309,13.51988 0.46946,1.63335 0.71615,3.33034 0.7326,5.02969 z"
       fill="#b3b3b3"
       data-darkreader-inline-fill=""
       id="path112"
       style="stroke-width:2.03643" />
    <path
       opacity="0.14"
       d="m 299.59967,171.43554 c 25.88306,-0.26474 45.31062,-204.620719 46.28811,-103.47133 0.97749,101.1498 -19.18319,183.38093 -45.06625,183.64567 -25.88305,0.26473 -47.67288,-81.45729 -48.67073,-182.729072 -0.99785,-101.271778 21.56582,102.799102 47.44887,102.554732 z"
       fill="#ffffff"
       data-darkreader-inline-fill=""
       id="path114"
       style="stroke-width:2.03643" />
    <path
       opacity="0.14"
       d="m 300.68917,484.36594 c 16.6906,-0.16291 29.86428,-36.74538 29.42441,-81.70777 -0.43987,-44.96239 -14.3263,-81.28012 -31.01487,-81.11721 -16.6906,0.16292 -29.86428,36.74539 -29.42441,81.70778 0.43987,44.96239 14.3263,81.28012 31.01487,81.1172 z"
       fill="#ffffff"
       data-darkreader-inline-fill=""
       id="path116"
       style="stroke-width:2.03643" />
  </g>
</svg>
