<?xml version="1.0" encoding="UTF-8" standalone="no"?>
<!-- Created with Inkscape (http://www.inkscape.org/) -->

<svg
   version="1.1"
   id="svg870"
   width="512"
   height="512"
   viewBox="0 0 512 512"
   sodipodi:docname="guitar_icon.png.svg"
   inkscape:version="1.1.2 (0a00cf5339, 2022-02-04)"
   inkscape:export-filename="/home/nikolas/AndroidStudioProjects/KoGuitarTuner/assets/guitar_icon.png"
   inkscape:export-xdpi="20.548525"
   inkscape:export-ydpi="20.548525"
   xmlns:inkscape="http://www.inkscape.org/namespaces/inkscape"
   xmlns:sodipodi="http://sodipodi.sourceforge.net/DTD/sodipodi-0.dtd"
   xmlns="http://www.w3.org/2000/svg"
   xmlns:svg="http://www.w3.org/2000/svg">
  <defs
     id="defs874">
    <filter
       style="color-interpolation-filters:sRGB;"
       inkscape:label="Drop Shadow"
       id="filter3081"
       x="-0.12090236"
       y="-0.12329098"
       width="1.2418047"
       height="1.246582">
      <feFlood
         flood-opacity="0.498039"
         flood-color="rgb(0,0,0)"
         result="flood"
         id="feFlood3071" />
      <feComposite
         in="flood"
         in2="SourceGraphic"
         operator="in"
         result="composite1"
         id="feComposite3073" />
      <feGaussianBlur
         in="composite1"
         stdDeviation="8"
         result="blur"
         id="feGaussianBlur3075" />
      <feOffset
         dx="0"
         dy="0"
         result="offset"
         id="feOffset3077" />
      <feComposite
         in="SourceGraphic"
         in2="offset"
         operator="over"
         result="fbSourceGraphic"
         id="feComposite3079" />
      <feColorMatrix
         result="fbSourceGraphicAlpha"
         in="fbSourceGraphic"
         values="0 0 0 -1 0 0 0 0 -1 0 0 0 0 -1 0 0 0 0 1 0"
         id="feColorMatrix3101" />
      <feFlood
         id="feFlood3103"
         flood-opacity="0.498039"
         flood-color="rgb(0,0,0)"
         result="flood"
         in="fbSourceGraphic" />
      <feComposite
         in2="fbSourceGraphic"
         id="feComposite3105"
         in="flood"
         operator="in"
         result="composite1" />
      <feGaussianBlur
         id="feGaussianBlur3107"
         in="composite1"
         stdDeviation="16"
         result="blur" />
      <feOffset
         id="feOffset3109"
         dx="0"
         dy="0"
         result="offset" />
      <feComposite
         in2="offset"
         id="feComposite3111"
         in="fbSourceGraphic"
         operator="over"
         result="composite2" />
    </filter>
  </defs>
  <sodipodi:namedview
     id="namedview872"
     pagecolor="#ffffff"
     bordercolor="#666666"
     borderopacity="1.0"
     inkscape:pageshadow="2"
     inkscape:pageopacity="0.0"
     inkscape:pagecheckerboard="0"
     showgrid="false"
     inkscape:snap-intersection-paths="false"
     inkscape:snap-smooth-nodes="false"
     inkscape:zoom="0.40185547"
     inkscape:cx="79.63062"
     inkscape:cy="588.52005"
     inkscape:window-width="1919"
     inkscape:window-height="1031"
     inkscape:window-x="0"
     inkscape:window-y="23"
     inkscape:window-maximized="1"
     inkscape:current-layer="g876" />
  <g
     inkscape:groupmode="layer"
     inkscape:label="Image"
     id="g876">
    <g
       id="path2280"
       inkscape:transform-center-x="29.372983"
       inkscape:transform-center-y="-32.514147"
       style="filter:url(#filter3081)"
       inkscape:export-filename="/home/nikolas/AndroidStudioProjects/KoGuitarTuner/assets/guitar_icon.png"
       inkscape:export-xdpi="20.548525"
       inkscape:export-ydpi="20.548525">
      <path
         style="color:#000000;fill:#000000;stroke-width:11.8721;-inkscape-stroke:none"
         d="M 468.38264,460.3067 C 414.47193,514.21742 66.447013,476.61604 27.955999,328.2632 -6.7177194,194.62307 181.97123,1.8286543 316.82622,31.427309 464.92435,63.932633 522.29335,406.39598 468.38264,460.3067 Z"
         id="path11799" />
      <path
         style="color:#000000;fill:#ffffff;-inkscape-stroke:none"
         d="M 291.13281,22.445312 C 227.24317,20.983739 157.63325,60.080132 104.56836,114.48633 43.922772,176.66484 4.0424586,259.7286 22.210937,329.75391 c 10.15355,39.13401 40.457871,70.35486 80.144533,94.38671 39.68666,24.03186 89.02297,41.09036 138.7832,51.79688 49.76024,10.70652 99.92065,15.03785 141.34961,13.27344 41.42896,-1.76442 74.1121,-8.72734 90.0918,-24.70703 16.07186,-16.07187 21.73993,-48.55269 21.62695,-89.39844 -0.11298,-40.84575 -6.93147,-90.13012 -20.11914,-138.81836 C 460.90022,187.59887 441.36419,139.533 415.48437,101.24805 389.60456,62.963098 357.17759,34.205938 318.09961,25.628906 309.27089,23.691135 300.2599,22.654109 291.13281,22.445312 Z m -0.31054,11.9375 c 8.43557,0.153618 16.70232,1.07974 24.73046,2.841797 34.97102,7.675614 65.251,33.918189 90.09571,70.671871 24.84471,36.75369 44.05248,83.76659 56.98047,131.4961 12.92798,47.72951 19.59764,96.20186 19.70703,135.74609 0.10938,39.54423 -7.26693,70.08724 -18.15039,80.9707 -10.97564,10.97564 -42.01227,19.52855 -82.20313,21.24024 -40.19086,1.71169 -89.55154,-2.52046 -138.34765,-13.01953 C 194.83866,453.83101 146.58215,437.04226 108.50391,413.98437 70.425666,390.92649 42.79311,361.81382 33.701172,326.77148 17.195967,263.1568 54.322321,183.00433 113.06641,122.77539 164.46748,70.075064 231.77327,33.307488 290.82227,34.382812 Z"
         id="path11801" />
    </g>
    <g
       id="g955"
       transform="matrix(0.52514382,0,0,0.52514382,121.5585,121.5604)">
      <path
         id="path979"
         style="fill:#000000"
         d="m 461.09375,17.177734 c 1.07042,-0.177187 3.34365,0.630644 4.90234,2.179688 13.00912,21.126694 22.41855,21.477153 26.07422,25.912109 1.6885,2.048441 2.926,4.596362 2.75,5.66211 -0.19176,1.16117 -12.14015,11.176143 -29.81445,24.992187 l -29.49414,23.056641 c -2.79691,-2.788976 -5.59378,-5.578074 -8.39063,-8.367188 C 438.27132,83.249928 456.41113,65.977256 463.25,59.212891 469.93325,52.60245 471,51.072132 471,48.101562 471,43.479498 468.58126,41 464.07227,41 c -3.18729,0 -4.53302,0.923496 -11.28516,7.75 -6.76609,6.840608 -23.99653,25.03883 -31.32813,36.216797 -2.79684,-2.789114 -5.59371,-5.57821 -8.39062,-8.367188 l 2.70117,-3.548828 C 436.31071,46.053078 459.5228,17.437773 461.09375,17.177734 Z" />
      <path
         id="path6570"
         style="fill:#ffffff;fill-opacity:1"
         d="m 438.17773,0.13085938 c -2.15239,0.30642206 -3.94551,1.89513492 -5.11914,4.72851562 -1.37281,3.3142511 6.3577,12.317965 6.3577,12.317965 l -6.19363,9.225004 -3.64649,-3.201172 c -4.25731,-3.737972 -6.32577,-3.972961 -9.9414,-1.128906 -3.90347,3.070469 -3.60666,7.84715 0.79101,12.714843 l 3.42774,3.792969 -6.66993,7.919922 -2.58398,-2.416016 c -3.38376,-3.164528 -8.25506,-3.228989 -10.75586,-0.140625 -2.72845,3.369486 -2.31686,7.449454 1.15039,11.398438 l 2.99609,3.410156 -4.19921,5.273438 c -2.30952,2.900636 -4.94322,7.469161 -5.85157,10.152343 -1.50652,4.450145 -6.81583,9.860516 -60.46093,61.601566 -32.34492,31.19688 -59.1552,56.86133 -59.58008,57.0332 -0.42489,0.17186 -3.38902,-1.82066 -6.58594,-4.42773 -6.8949,-5.62276 -21.04453,-12.48095 -30.8125,-14.93555 -9.23199,-2.31991 -27.52015,-2.38557 -36.74023,-0.13086 -22.80898,5.5778 -41.53701,20.33542 -52.66407,41.5 -6.32394,12.02867 -13.74685,19.71944 -23.38672,24.23047 -5.10408,2.38849 -8.631,3.18729 -17.7871,4.02734 -20.643172,1.89394 -32.976074,5.30565 -48.92188,13.53125 -11.003927,5.67634 -19.775183,12.34155 -29.146484,22.15039 -37.9624116,39.7348 -42.358407,99.85141 -10.673828,145.95117 5.877102,8.55094 43.134913,47.09703 56.451171,58.40235 17.855368,15.15896 38.321711,24.49748 60.869141,27.77344 26.05824,3.78604 57.8104,-2.77179 79.27344,-17.99219 16.55089,-11.73698 27.05452,-24.31976 38.57812,-44.0586 1.80922,-3.09902 3.27456,-6.0614 4.54883,-9 -5.0584,-2.43766 -9.34078,-5.92889 -13.01172,-9.70898 -2.45128,7.00899 -5.48366,13.6182 -9.30469,20.29297 -9.05994,15.82637 -17.61178,22.73621 -30.05468,30.56445 -9.13514,5.74722 -19.44987,10.26038 -30.35352,13.22461 -11.21736,3.0495 -35.19962,3.08142 -47.17578,0.0625 -11.04143,-2.78331 -21.60053,-7.20459 -30.97266,-12.96875 -9.623752,-5.91894 -59.457941,-54.9562 -67.148434,-66.07422 -10.429415,-15.07764 -16.523933,-33.2166 -17.576172,-52.30273 -2.004832,-36.3648 15.96564,-70.83234 46.835938,-89.83008 14.866786,-9.1491 28.113593,-13.28684 47.984378,-14.99023 13.00725,-1.11502 21.597,-3.59304 29.87695,-8.61719 10.44119,-6.33554 16.69434,-13.67837 25.53516,-29.98633 7.77653,-14.34476 23.52276,-26.75357 39.46484,-31.10156 5.12519,-1.39783 11.71495,-1.99591 18.29102,-1.83008 6.57607,0.16583 13.13845,1.09506 18.20898,2.75 8.4636,2.76238 18.339,8.14782 22.5,12.26953 l 2.5,2.47656 -9,8.72071 c -4.95,4.79663 -16.71328,16.196 -26.14062,25.33203 -18.26223,17.69785 -19.57575,19.66914 -17.42579,26.18359 0.71003,2.1514 6.42209,8.59268 16.33008,18.41797 17.02078,16.87872 19.46021,18.24522 26.14063,14.63867 1.89264,-1.02177 14.11571,-12.99492 27.16406,-26.60742 13.04834,-13.6125 24.03084,-24.75 24.4043,-24.75 2.84567,0 11.33375,14.15026 14.69726,24.5 2.07713,6.39148 2.62263,10.11118 2.70703,18.5 0.12576,12.50675 -1.22415,18.63606 -6.60742,30 -3.15032,6.65024 -8.23133,13.14578 -14.33789,18.70898 5.01395,1.53047 9.62541,3.94835 13.91406,6.70704 0.12798,0.0893 0.25559,0.17915 0.38282,0.26953 9.72541,-10.13743 16.56493,-22.49556 19.93164,-36.44532 2.24478,-9.30112 2.19228,-27.61017 -0.10547,-36.74023 -2.45004,-9.73515 -9.3124,-23.91289 -14.87696,-30.73633 C 321.10502,237.60894 319,234.77879 319,234.47461 c 0,-0.30418 25.65658,-27.15637 57.01367,-59.67188 51.82266,-53.73713 57.45275,-59.26738 61.84961,-60.75585 2.66047,-0.90068 7.2107,-3.52838 10.11133,-5.8379 l 5.27344,-4.19921 3.41015,2.99609 c 3.94899,3.46725 8.02896,3.87884 11.39844,1.15039 3.08837,-2.5008 3.0239,-7.3721 -0.14062,-10.755859 L 465.5,94.816406 c 2.63986,-2.223436 5.2799,-4.446673 7.91992,-6.669922 l 3.79297,3.427735 c 4.86769,4.397669 9.64437,4.694484 12.71484,0.791015 2.84405,-3.61563 2.60907,-5.684091 -1.1289,-9.941406 l -3.20117,-3.646484 8.40634,-6.474611 c 2.5878,2.798829 0.11799,0.06972 2.5878,2.798829 3.48049,3.845856 7.23457,5.212652 10.54882,3.839844 5.66679,-2.34725 6.35422,-7.170365 1.76563,-12.396484 l -3.0957,-3.523438 2.0957,-4.326172 c 4.00096,-8.264873 2.32788,-16.461184 -4.81836,-23.607421 C 476.33984,8.2832015 479.6057,11.363304 476.33984,8.2832031 469.3459,1.6870624 461.29901,0.22376938 453.30469,4.09375 l -4.32617,2.0957031 c -2.9916,-2.6207258 -6.9617,-6.51497547 -10.80079,-6.05859372 z M 405.91797,91.244141 421.28516,105.83398 405.97656,122 389.58398,106.03711 Z m -26.91602,25.273439 c 0,0 10.9728,10.97279 16.45899,16.45898 C 390.87153,137.61436 383.00781,145 383.00781,145 L 366.5332,128.98633 Z m -23.54492,22.47851 17.54102,17.46094 L 357.00195,172 339.54492,155.00195 Z m -27,26 c 6.17997,6.15427 12.36105,12.30862 18.54102,18.46289 C 341.06155,189.4305 331.00195,199 331.00195,199 l -18.45703,-17.99805 c 0,0 10.60764,-10.67009 15.91211,-16.00586 z m -26.99805,25.99805 c 6.51309,6.48756 13.02507,12.97623 19.53711,19.46484 -5.38398,5.07035 -10.25352,10.93812 -15.99218,15.54102 -7.17281,-6.38715 -12.20877,-11.71397 -19.46094,-18.99609 5.30533,-5.33659 10.61067,-10.67318 15.91601,-16.00977 z m -27.4414,26.53516 20.46875,20.46875 -16.01172,16.01172 -20.48047,-20.55079 z m -27.01563,25.98437 21.47071,21.47071 L 251.00391,282 c 0,0 -13.4598,-12.96412 -21.47852,-21.00977 z M 109.44531,360 C 104.72439,360 102,362.48632 102,366.79688 c 0,3.45382 1.23377,4.91952 19.74023,23.44335 17.58316,17.59966 20.09685,19.75977 23,19.75977 4.22262,0 7.25977,-3.02166 7.25977,-7.22266 0,-2.85435 -2.25754,-5.48021 -19.77734,-23 C 115.30991,362.86459 112.01048,360 109.44531,360 Z"
         sodipodi:nodetypes="cscccsccccscccssssssssssssssssccsssssssssssssssccssssssssscccsssssscccsccccscccssccccsccccccccccccccccccccccccccccccccccccccsssssss" />
      <path
         d="m 417.15012,399.27985 c -2.75789,3.63615 -5.51577,7.27231 -8.27366,10.90846 -5.47422,-13.12343 -10.46745,-26.48197 -16.24416,-39.45753 -5.65162,-5.4838 -9.17093,3.01356 -10.36774,7.66416 -3.74112,10.10875 -7.48225,20.21751 -11.22337,30.32627 -6.2277,-29.13911 -12.45539,-58.27823 -18.68309,-87.41734 -3.96178,-9.13843 -11.17942,0.0495 -10.25986,6.329 -5.10986,33.19061 -10.21973,66.38122 -15.3296,99.57183 -5.51577,-23.18088 -11.03154,-46.36176 -16.54731,-69.54264 -3.73375,-8.64798 -10.729,-0.36824 -10.92544,5.50475 -4.23929,13.8674 -8.47857,27.7348 -12.71786,41.6022 -3.86199,-8.80365 -7.26486,-17.83951 -11.41917,-26.49532 -4.91963,-5.03199 -8.80814,2.12017 -11.25687,5.80837 -3.29273,4.28613 -5.86439,9.30811 -9.61019,13.13187 -10.56652,0.24205 -21.23114,-0.49668 -31.73295,0.39235 -8.26153,6.11178 2.37758,11.34972 8.59702,9.58794 9.07574,-0.0915 18.17369,0.18257 27.23565,-0.13598 4.62687,-2.67329 6.64212,-8.32904 10.05644,-12.3667 2.28304,-5.63657 3.3609,0.12435 4.73623,3.07205 3.56111,8.09156 6.67366,16.40894 10.51936,24.35724 5.8775,5.45289 9.20202,-3.32014 10.06934,-8.12721 3.75622,-12.29 7.51245,-24.58 11.26867,-36.87 6.03475,25.37987 12.06949,50.75974 18.10424,76.13961 4.07398,9.00529 11.12927,-0.21259 10.23991,-6.43879 5.03002,-32.67163 10.06004,-65.34327 15.09006,-98.0149 5.56567,26.04855 11.13135,52.0971 16.69702,78.14565 3.47322,8.66328 10.61606,0.78922 11.1814,-4.98214 4.28371,-11.56317 8.56742,-23.12633 12.85113,-34.6895 5.04955,12.07182 9.61419,24.38098 14.96825,36.30376 4.86526,5.09164 8.81335,-2.04264 11.35013,-5.66578 2.90551,-3.50206 5.00698,-7.92964 8.40303,-10.86703 10.69294,-0.24211 21.48348,0.49395 32.11282,-0.38549 8.15985,-6.08342 -2.42782,-11.19248 -8.5677,-9.45508 -9.19964,0.0915 -18.42247,-0.18443 -27.6074,0.14035 -1.10152,0.27947 -2.07774,0.98827 -2.71433,1.92557 z"
         id="path5879"
         style="fill:#ffffff;fill-opacity:1;stroke-width:9.98029" />
      <g
         id="path5422">
        <path
           style="color:#000000;fill:#ffffff;-inkscape-stroke:none"
           d="M 182.50391,279.3418 C 158.04264,279.3418 138,299.24991 138,323.64844 c 0,24.39852 20.04264,44.30468 44.50391,44.30468 24.46126,0 44.5039,-19.90616 44.5039,-44.30468 0,-24.39853 -20.04264,-44.30664 -44.5039,-44.30664 z m 0,15.91601 c 15.90653,0 28.58789,12.64046 28.58789,28.39063 0,15.75016 -12.68136,28.38867 -28.58789,28.38867 -15.90654,0 -28.58985,-12.63851 -28.58985,-28.38867 0,-15.75017 12.68331,-28.39063 28.58985,-28.39063 z"
           id="path10655" />
      </g>
    </g>
  </g>
</svg>
