<?xml version="1.0" encoding="UTF-8" standalone="no"?>
<!-- Created with Inkscape (http://www.inkscape.org/) -->

<svg
   width="210mm"
   height="297mm"
   viewBox="0 0 595.2756 841.88974"
   version="1.1"
   id="svg1439"
   sodipodi:docname="temp.svg"
   inkscape:version="1.1.2 (0a00cf5339, 2022-02-04)"
   xmlns:inkscape="http://www.inkscape.org/namespaces/inkscape"
   xmlns:sodipodi="http://sodipodi.sourceforge.net/DTD/sodipodi-0.dtd"
   xmlns="http://www.w3.org/2000/svg"
   xmlns:svg="http://www.w3.org/2000/svg">
  <sodipodi:namedview
     id="namedview1441"
     pagecolor="#ffffff"
     bordercolor="#666666"
     borderopacity="1.0"
     inkscape:pageshadow="2"
     inkscape:pageopacity="0.0"
     inkscape:pagecheckerboard="0"
     inkscape:document-units="pt"
     showgrid="false"
     inkscape:zoom="0.26740451"
     inkscape:cx="200.07142"
     inkscape:cy="876.94855"
     inkscape:window-width="1919"
     inkscape:window-height="1031"
     inkscape:window-x="0"
     inkscape:window-y="23"
     inkscape:window-maximized="1"
     inkscape:current-layer="layer1"
     width="211mm"
     units="mm"
     scale-x="1"
     showborder="true" />
  <defs
     id="defs1436" />
  <g
     inkscape:label="Ebene 1"
     inkscape:groupmode="layer"
     id="layer1">
    <g
       id="g1206"
       transform="matrix(2.0364323,0,0,2.0364323,-156.27606,-133.62202)">
      <path
         id="neck-2"
         d="m 151.1,177.23 -0.53,-12.09 -39.02,5.32 0.53,12.1 z"
         fill="#e6e6e6"
         data-darkreader-inline-fill="">
        <animate
           attributeName="fill"
           restart="always"
           dur="4s"
           keyTimes="0;.1;1"
           values="#5f93f8; #5f93f8; #e6e6e6" />
      </path>
      <path
         id="neck-1"
         d="m 151.04,254.84 -0.54,-12.05 -39.03,5.32 0.55,12.08 z"
         fill="#e6e6e6"
         data-darkreader-inline-fill="">
        <animate
           attributeName="fill"
           restart="always"
           dur="4s"
           keyTimes="0;.1;1"
           values="#5f93f8; #5f93f8; #e6e6e6" />
      </path>
      <path
         id="neck-0"
         d="m 150.67,342.03 -0.55,-12.06 -39.02,5.31 0.53,12.07 z"
         fill="#e6e6e6"
         data-darkreader-inline-fill="">
        <animate
           attributeName="fill"
           restart="always"
           dur="4s"
           keyTimes="0;.1;1"
           values="#5f93f8; #5f93f8; #e6e6e6" />
      </path>
      <path
         id="key-1"
         d="m 100.834,278.997 2.34,-0.023 c 8.676,-0.084 15.641,-7.186 15.556,-15.862 l -0.159,-16.25 c -0.085,-8.676 -7.187,-15.64 -15.863,-15.555 l -2.34,0.023 c -8.6757,0.084 -15.6403,7.186 -15.5555,15.862 l 0.1589,16.25 c 0.0848,8.675 7.1868,15.64 15.8626,15.555 z"
         fill="#e6e6e6"
         data-darkreader-inline-fill="">
        <animate
           attributeName="fill"
           restart="always"
           dur="4s"
           keyTimes="0;.1;1"
           values="#5f93f8; #5f93f8; #e6e6e6" />
      </path>
      <path
         id="key-0"
         d="m 101.65,362.4 2.34,-0.023 c 8.676,-0.085 15.64,-7.187 15.556,-15.863 l -0.12,-12.27 c -0.085,-8.676 -7.187,-15.64 -15.863,-15.555 l -2.34,0.023 c -8.6759,0.084 -15.6404,7.186 -15.5556,15.862 l 0.1199,12.27 c 0.0848,8.676 7.1868,15.64 15.8627,15.556 z"
         fill="#e6e6e6"
         data-darkreader-inline-fill="">
        <animate
           attributeName="fill"
           restart="always"
           dur="4s"
           keyTimes="0;.1;1"
           values="#5f93f8; #5f93f8; #e6e6e6" />
      </path>
      <path
         id="key-2"
         d="m 100.081,201.546 2.34,-0.023 c 8.676,-0.085 15.64,-7.187 15.555,-15.863 l -0.158,-16.249 c -0.085,-8.676 -7.187,-15.64 -15.863,-15.556 l -2.3402,0.023 c -8.6759,0.085 -15.6405,7.187 -15.5557,15.863 l 0.1588,16.249 c 0.0848,8.676 7.1869,15.641 15.8631,15.556 z"
         fill="#e6e6e6"
         data-darkreader-inline-fill="">
        <animate
           attributeName="fill"
           restart="always"
           dur="4s"
           keyTimes="0;.1;1"
           values="#5f93f8; #5f93f8; #e6e6e6" />
      </path>
      <path
         id="neck-3"
         d="m 291.23,175.86 0.29,-12.1 39.11,4.56 -0.28,12.1 z"
         fill="#e6e6e6"
         data-darkreader-inline-fill="">
        <animate
           attributeName="fill"
           restart="always"
           dur="4s"
           keyTimes="0;.1;1"
           values="#5f93f8; #5f93f8; #e6e6e6" />
      </path>
      <path
         id="neck-4"
         d="m 292.81,253.45 0.3,-12.06 39.12,4.56 -0.31,12.09 z"
         fill="#e6e6e6"
         data-darkreader-inline-fill="">
        <animate
           attributeName="fill"
           restart="always"
           dur="4s"
           keyTimes="0;.1;1"
           values="#5f93f8; #5f93f8; #e6e6e6" />
      </path>
      <path
         id="neck-5"
         d="m 294.88,340.62 0.31,-12.07 39.12,4.55 -0.29,12.07 z"
         fill="#e6e6e6"
         data-darkreader-inline-fill="">
        <animate
           attributeName="fill"
           restart="always"
           dur="4s"
           keyTimes="0;.1;1"
           values="#5f93f8; #5f93f8; #e6e6e6" />
      </path>
      <path
         id="key-4"
         d="m 343.001,228.964 -2.34,0.023 c -8.676,0.085 -15.64,7.187 -15.555,15.863 l 0.159,16.249 c 0.084,8.676 7.186,15.641 15.862,15.556 l 2.34,-0.023 c 8.676,-0.085 15.641,-7.187 15.556,-15.863 l -0.159,-16.249 c -0.085,-8.676 -7.187,-15.64 -15.863,-15.556 z"
         fill="#e6e6e6"
         data-darkreader-inline-fill="">
        <animate
           attributeName="fill"
           restart="always"
           dur="4s"
           keyTimes="0;.1;1"
           values="#5f93f8; #5f93f8; #e6e6e6" />
      </path>
      <path
         id="key-5"
         d="m 343.866,316.342 -2.34,0.023 c -8.676,0.085 -15.641,7.187 -15.556,15.863 l 0.12,12.269 c 0.085,8.676 7.187,15.64 15.863,15.556 l 2.34,-0.023 c 8.676,-0.085 15.64,-7.187 15.555,-15.863 l -0.12,-12.269 c -0.084,-8.676 -7.186,-15.641 -15.862,-15.556 z"
         fill="#e6e6e6"
         data-darkreader-inline-fill="">
        <animate
           attributeName="fill"
           restart="always"
           dur="4s"
           keyTimes="0;.1;1"
           values="#5f93f8; #5f93f8; #e6e6e6" />
      </path>
      <path
         id="key-3"
         d="m 342.244,151.515 -2.339,0.023 c -8.676,0.085 -15.641,7.187 -15.556,15.863 l 0.159,16.249 c 0.084,8.676 7.187,15.641 15.862,15.556 l 2.34,-0.023 c 8.676,-0.085 15.641,-7.187 15.556,-15.863 l -0.159,-16.249 c -0.085,-8.676 -7.187,-15.64 -15.863,-15.556 z"
         fill="#e6e6e6"
         data-darkreader-inline-fill="">
        <animate
           attributeName="fill"
           restart="always"
           dur="4s"
           keyTimes="0;.1;1"
           values="#5f93f8; #5f93f8; #e6e6e6" />
      </path>
      <path
         d="m 273.4,475.74 -100.28,-0.21 c 0,1.37 -2.19398,3.81023 -2.19398,3.81023 l 102.4291,-1e-5 c 0,0 0.0649,-2.24022 0.0449,-3.60022 z"
         fill="#594436"
         data-darkreader-inline-fill=""
         id="path14"
         sodipodi:nodetypes="cccccc" />
      <path
         d="m 213,66 c -5.84,-0.87 -17.55,14.14 -36.37,21.47 -14,5.47 -34.9,4 -44.61,2.88 -0.616,-0.0707 -1.241,0.0029 -1.823,0.2149 -0.583,0.212 -1.109,0.5566 -1.536,1.0067 -0.426,0.45 -0.743,0.9931 -0.923,1.5864 -0.181,0.5933 -0.221,1.2204 -0.118,1.832 3.3,19.48 14.26,88.66 15,150.05 0.83,72.3 -14.88,141.16 -15.22,147.12 -0.34,5.96 15.86,12.22 24.27,25.57 8.41,13.35 17.8,22.72 18.11,31.51 0.2,5.82 0.3,13.67 0.35,18.32 0,1.051 0.413,2.059 1.15,2.807 0.737,0.749 1.739,1.177 2.79,1.193 L 198,472 l 23.49,0.38 h 1.7 l 16.32,-0.19 33.3,-0.4 c 1.052,0 2.062,-0.414 2.811,-1.154 0.748,-0.739 1.176,-1.744 1.189,-2.796 0.07,-4.58 0.2,-12.28 0.42,-18.08 0.35,-8.78 7.62,-18.34 16.08,-31.65 8.46,-13.31 24.68,-19.51 24.37,-25.47 -0.31,-5.96 -15.82,-74.93 -14.68,-147.23 0.95,-61.38 12.21,-130.52 15.58,-150 0.106,-0.6103 0.068,-1.2368 -0.109,-1.8301 -0.178,-0.5934 -0.491,-1.1373 -0.915,-1.5891 -0.423,-0.4518 -0.946,-0.799 -1.527,-1.0144 -0.581,-0.2153 -1.203,-0.2928 -1.819,-0.2264 -9.72,1.06 -30.59,2.46 -44.61,-3.07 C 250.79,80.29 240.73,66 233.31,66.08 Z"
         fill="#edab5a"
         data-darkreader-inline-fill=""
         id="path18" />
      <path
         opacity="0.14"
         d="m 240.73,436.75 c -13.93,7.87 -32.11,11.5 -46.64,6.05 -13.33,-4.84 -20,-20.59 -33.92,-26.65 -3.586,-1.336 -7.319,-2.236 -11.12,-2.68 1.144,1.362 2.197,2.798 3.15,4.3 8.4,13.34 17.81,22.72 18.11,31.51 0.3,8.79 0.38,22.22 0.38,22.22 l 27.86,0.45 23.5,0.38 h 1.7 l 16.31,-0.19 37.22,-0.45 c 0,0 0.13,-13.19 0.47,-22 0.34,-8.81 7.61,-18.34 16.07,-31.65 8.46,-13.31 24.69,-19.51 24.37,-25.47 -0.06,-1.31 -0.86,-5.67 -2.06,-12.44 C 305,382.48 294.4,387 285.55,395 269.8,409.49 258.9,427.05 240.73,436.75 Z"
         fill="#ffffff"
         data-darkreader-inline-fill=""
         id="path20" />
      <path
         d="m 173.7,318.75 c 2.915,0.006 5.763,0.876 8.184,2.501 2.42,1.624 4.305,3.93 5.415,6.626 1.11,2.696 1.396,5.66 0.822,8.518 -0.575,2.858 -1.984,5.482 -4.05,7.539 -2.065,2.057 -4.695,3.456 -7.555,4.019 -2.861,0.563 -5.824,0.265 -8.515,-0.857 -2.691,-1.121 -4.989,-3.015 -6.604,-5.442 -1.615,-2.427 -2.473,-5.279 -2.467,-8.194 0.004,-1.936 0.389,-3.852 1.133,-5.638 0.745,-1.787 1.834,-3.41 3.205,-4.776 1.372,-1.366 2.999,-2.448 4.789,-3.185 1.79,-0.738 3.707,-1.115 5.643,-1.111 z"
         fill="#75787a"
         data-darkreader-inline-fill=""
         id="path22" />
      <path
         d="m 173.84,349 h -0.2 c -3.062,-0.009 -6.052,-0.925 -8.594,-2.633 -2.541,-1.708 -4.519,-4.13 -5.684,-6.962 -1.166,-2.831 -1.466,-5.944 -0.863,-8.946 0.603,-3.002 2.082,-5.757 4.251,-7.919 1.436,-1.453 3.15,-2.602 5.04,-3.379 1.89,-0.776 3.917,-1.164 5.96,-1.141 4.111,-0.019 8.06,1.597 10.98,4.49 2.92,2.894 4.571,6.829 4.59,10.94 0.018,4.111 -1.597,8.061 -4.491,10.981 -2.893,2.92 -6.828,4.57 -10.939,4.589 z m -0.31,-29.48 c -3.713,0.016 -7.268,1.506 -9.882,4.143 -2.614,2.637 -4.074,6.204 -4.058,9.917 0.016,3.713 1.506,7.268 4.143,9.882 2.636,2.614 6.204,4.074 9.917,4.058 h 0.17 c 1.838,-0.008 3.657,-0.378 5.353,-1.089 1.695,-0.71 3.234,-1.748 4.529,-3.054 1.294,-1.305 2.319,-2.853 3.015,-4.555 0.696,-1.701 1.051,-3.523 1.043,-5.362 -0.008,-1.838 -0.378,-3.657 -1.089,-5.353 -0.711,-1.695 -1.749,-3.234 -3.054,-4.529 -1.306,-1.294 -2.854,-2.319 -4.555,-3.015 -1.702,-0.697 -3.524,-1.051 -5.362,-1.043 z"
         fill="#3f3f3f"
         data-darkreader-inline-fill=""
         id="path24" />
      <path
         d="m 173.69,326.26 c 1.429,0.004 2.826,0.432 4.012,1.229 1.187,0.797 2.11,1.928 2.654,3.25 0.544,1.322 0.684,2.776 0.402,4.177 -0.282,1.402 -0.973,2.688 -1.986,3.697 -1.013,1.009 -2.302,1.694 -3.705,1.971 -1.403,0.276 -2.856,0.13 -4.175,-0.419 -1.32,-0.55 -2.447,-1.478 -3.24,-2.668 -0.792,-1.189 -1.214,-2.587 -1.212,-4.017 0.005,-1.918 0.772,-3.756 2.131,-5.11 1.359,-1.354 3.201,-2.113 5.119,-2.11 z"
         fill="#75787a"
         data-darkreader-inline-fill=""
         id="path26" />
      <path
         d="m 173.75,341.47 h -0.09 c -2.122,0 -4.156,-0.843 -5.657,-2.343 -1.5,-1.5 -2.343,-3.535 -2.343,-5.657 0,-2.122 0.843,-4.157 2.343,-5.657 1.501,-1.5 3.535,-2.343 5.657,-2.343 2.122,-0.007 4.159,0.83 5.664,2.325 1.505,1.496 2.355,3.528 2.361,5.65 0.007,2.122 -0.83,4.159 -2.325,5.664 -1.496,1.505 -3.528,2.354 -5.65,2.361 z M 173.62,327 c -1.724,0 -3.377,0.685 -4.596,1.904 -1.219,1.219 -1.904,2.872 -1.904,4.596 0,1.724 0.685,3.377 1.904,4.596 1.219,1.219 2.872,1.904 4.596,1.904 h 0.08 c 1.724,-0.007 3.375,-0.698 4.589,-1.921 1.214,-1.224 1.893,-2.88 1.886,-4.604 -0.006,-1.724 -0.698,-3.375 -1.921,-4.589 -1.224,-1.214 -2.88,-1.893 -4.604,-1.886 z"
         fill="#3f3f3f"
         data-darkreader-inline-fill=""
         id="path28" />
      <path
         d="m 272.87,319 c 2.915,0.006 5.763,0.876 8.184,2.501 2.421,1.624 4.305,3.93 5.416,6.626 1.11,2.696 1.396,5.66 0.821,8.518 -0.575,2.858 -1.984,5.482 -4.049,7.539 -2.066,2.057 -4.695,3.456 -7.556,4.019 -2.86,0.563 -5.823,0.265 -8.514,-0.856 -2.691,-1.122 -4.99,-3.016 -6.604,-5.443 -1.615,-2.427 -2.474,-5.279 -2.468,-8.194 0.003,-1.936 0.387,-3.853 1.131,-5.64 0.744,-1.787 1.833,-3.411 3.205,-4.777 1.371,-1.366 2.999,-2.448 4.79,-3.185 1.79,-0.737 3.708,-1.113 5.644,-1.108 z"
         fill="#75787a"
         data-darkreader-inline-fill=""
         id="path30" />
      <path
         d="m 273,349.18 h -0.19 c -2.036,0.009 -4.053,-0.384 -5.937,-1.155 -1.884,-0.771 -3.597,-1.906 -5.042,-3.339 -1.446,-1.433 -2.595,-3.137 -3.381,-5.014 -0.787,-1.878 -1.197,-3.891 -1.205,-5.927 -0.009,-2.035 0.384,-4.053 1.155,-5.936 0.771,-1.884 1.905,-3.598 3.339,-5.043 1.433,-1.445 3.137,-2.594 5.014,-3.381 1.877,-0.787 3.891,-1.196 5.927,-1.205 h 0.19 c 4.111,-0.017 8.06,1.599 10.979,4.494 2.919,2.895 4.569,6.83 4.586,10.941 0.017,4.111 -1.599,8.06 -4.494,10.979 -2.895,2.919 -6.83,4.569 -10.941,4.586 z m -0.31,-29.48 c -3.745,0.024 -7.328,1.531 -9.963,4.192 -2.636,2.661 -4.109,6.258 -4.097,10.003 0.012,3.745 1.508,7.332 4.16,9.976 2.652,2.644 6.245,4.129 9.99,4.129 3.745,0 7.337,-1.485 9.989,-4.129 2.653,-2.644 4.149,-6.231 4.161,-9.976 0.012,-3.745 -1.462,-7.342 -4.097,-10.003 -2.636,-2.661 -6.218,-4.168 -9.963,-4.192 z"
         fill="#3f3f3f"
         data-darkreader-inline-fill=""
         id="path32" />
      <path
         d="m 272.85,326.47 c 1.43,0.002 2.827,0.428 4.015,1.224 1.188,0.796 2.113,1.927 2.658,3.248 0.546,1.322 0.687,2.776 0.406,4.178 -0.281,1.402 -0.971,2.69 -1.984,3.699 -1.012,1.01 -2.302,1.697 -3.704,1.974 -1.403,0.277 -2.857,0.132 -4.177,-0.417 -1.321,-0.549 -2.448,-1.477 -3.241,-2.668 -0.793,-1.19 -1.215,-2.588 -1.213,-4.018 10e-4,-0.949 0.19,-1.889 0.554,-2.766 0.365,-0.877 0.898,-1.673 1.571,-2.343 0.672,-0.671 1.47,-1.202 2.347,-1.565 0.878,-0.362 1.818,-0.547 2.768,-0.546 z"
         fill="#75787a"
         data-darkreader-inline-fill=""
         id="path34" />
      <path
         d="m 272.92,341.67 h -0.1 c -2.122,0 -4.157,-0.843 -5.657,-2.343 -1.5,-1.5 -2.343,-3.535 -2.343,-5.657 0.021,-2.115 0.87,-4.138 2.366,-5.634 1.496,-1.496 3.519,-2.345 5.634,-2.366 2.007,0.15 3.883,1.051 5.256,2.523 1.372,1.472 2.139,3.407 2.148,5.42 0.009,2.012 -0.741,3.954 -2.101,5.438 -1.359,1.484 -3.228,2.401 -5.233,2.569 z m -0.14,-14.46 c -1.724,0.007 -3.375,0.698 -4.589,1.922 -1.214,1.223 -1.893,2.879 -1.886,4.603 0.006,1.724 0.698,3.375 1.921,4.589 1.224,1.214 2.88,1.893 4.604,1.886 0.85,0.007 1.693,-0.156 2.479,-0.478 0.787,-0.323 1.501,-0.8 2.101,-1.402 0.909,-0.905 1.53,-2.06 1.784,-3.318 0.253,-1.258 0.128,-2.563 -0.36,-3.75 -0.488,-1.187 -1.317,-2.203 -2.382,-2.918 -1.065,-0.716 -2.319,-1.1 -3.602,-1.104 z"
         fill="#3f3f3f"
         data-darkreader-inline-fill=""
         id="path36" />
      <path
         d="m 173.26,236.81 c 2.918,0.004 5.769,0.873 8.193,2.498 2.424,1.625 4.311,3.933 5.424,6.631 1.112,2.697 1.399,5.665 0.824,8.526 -0.575,2.861 -1.985,5.487 -4.053,7.546 -2.067,2.059 -4.699,3.459 -7.563,4.022 -2.863,0.563 -5.829,0.264 -8.522,-0.859 -2.693,-1.123 -4.993,-3.02 -6.608,-5.451 -1.615,-2.43 -2.473,-5.285 -2.465,-8.203 0.01,-3.909 1.572,-7.653 4.341,-10.411 2.77,-2.758 6.52,-4.304 10.429,-4.299 z"
         fill="#75787a"
         data-darkreader-inline-fill=""
         id="path38" />
      <path
         d="m 173.39,267 h -0.19 c -4.06,-0.025 -7.945,-1.659 -10.802,-4.543 -2.858,-2.884 -4.455,-6.784 -4.443,-10.844 0.013,-4.06 1.634,-7.95 4.51,-10.816 2.875,-2.867 6.77,-4.477 10.83,-4.477 4.06,0 7.955,1.61 10.83,4.477 2.876,2.866 4.497,6.756 4.51,10.816 0.013,4.06 -1.585,7.96 -4.443,10.844 -2.857,2.884 -6.742,4.518 -10.802,4.543 z m -0.31,-29.48 c -3.721,0.024 -7.281,1.522 -9.899,4.166 -2.619,2.644 -4.083,6.218 -4.071,9.939 0.012,3.721 1.499,7.286 4.134,9.913 2.636,2.627 6.205,4.102 9.926,4.102 3.721,0 7.291,-1.475 9.926,-4.102 2.636,-2.627 4.122,-6.192 4.134,-9.913 0.012,-3.721 -1.452,-7.295 -4.07,-9.939 -2.619,-2.644 -6.179,-4.142 -9.9,-4.166 z"
         fill="#3f3f3f"
         data-darkreader-inline-fill=""
         id="path40" />
      <path
         d="m 173.25,244.32 c 1.43,0.004 2.826,0.432 4.012,1.229 1.187,0.797 2.11,1.928 2.654,3.25 0.544,1.322 0.684,2.776 0.402,4.177 -0.282,1.402 -0.973,2.688 -1.986,3.697 -1.013,1.009 -2.302,1.694 -3.705,1.971 -1.403,0.276 -2.856,0.13 -4.175,-0.419 -1.32,-0.55 -2.447,-1.478 -3.24,-2.668 -0.792,-1.189 -1.214,-2.588 -1.212,-4.017 0.001,-0.95 0.19,-1.891 0.555,-2.768 0.365,-0.878 0.9,-1.674 1.573,-2.345 0.674,-0.671 1.473,-1.202 2.351,-1.563 0.879,-0.362 1.821,-0.547 2.771,-0.544 z"
         fill="#75787a"
         data-darkreader-inline-fill=""
         id="path42" />
      <path
         d="m 173.32,259.53 h -0.1 c -2.007,-0.151 -3.883,-1.053 -5.254,-2.526 -1.371,-1.473 -2.137,-3.409 -2.145,-5.421 -0.007,-2.013 0.744,-3.954 2.104,-5.437 1.36,-1.484 3.229,-2.4 5.235,-2.566 h 0.09 c 2.007,0.15 3.884,1.051 5.256,2.523 1.372,1.472 2.139,3.407 2.148,5.42 0.009,2.012 -0.741,3.954 -2.1,5.438 -1.36,1.484 -3.228,2.401 -5.234,2.569 z m -0.15,-14.46 c -1.724,0.007 -3.375,0.698 -4.589,1.921 -1.214,1.224 -1.893,2.88 -1.886,4.604 0.007,1.724 0.698,3.375 1.922,4.589 1.223,1.214 2.879,1.893 4.603,1.886 0.853,0.013 1.701,-0.147 2.49,-0.472 0.789,-0.325 1.504,-0.808 2.1,-1.418 0.911,-0.904 1.533,-2.058 1.788,-3.316 0.254,-1.258 0.129,-2.563 -0.36,-3.75 -0.488,-1.187 -1.318,-2.202 -2.384,-2.917 -1.066,-0.714 -2.321,-1.096 -3.604,-1.097 z"
         fill="#3f3f3f"
         data-darkreader-inline-fill=""
         id="path44" />
      <path
         d="m 273.65,237 c 2.918,0.004 5.769,0.873 8.193,2.498 2.424,1.625 4.312,3.933 5.424,6.631 1.112,2.697 1.399,5.665 0.824,8.526 -0.575,2.861 -1.985,5.487 -4.053,7.546 -2.067,2.059 -4.699,3.459 -7.562,4.022 -2.864,0.563 -5.83,0.264 -8.523,-0.859 -2.693,-1.123 -4.993,-3.02 -6.608,-5.451 -1.615,-2.43 -2.473,-5.285 -2.465,-8.203 0.011,-3.908 1.572,-7.653 4.341,-10.411 2.77,-2.758 6.52,-4.304 10.429,-4.299 z"
         fill="#75787a"
         data-darkreader-inline-fill=""
         id="path46" />
      <path
         d="m 273.78,267.25 h -0.19 c -2.035,-0.004 -4.05,-0.409 -5.929,-1.191 -1.879,-0.783 -3.586,-1.928 -5.022,-3.37 -1.437,-1.442 -2.575,-3.153 -3.35,-5.035 -0.776,-1.882 -1.173,-3.899 -1.169,-5.934 0.004,-2.035 0.409,-4.05 1.191,-5.929 0.783,-1.879 1.928,-3.586 3.37,-5.022 1.442,-1.437 3.153,-2.575 5.035,-3.351 1.882,-0.775 3.899,-1.172 5.934,-1.168 v 0 c 4.111,-0.016 8.06,1.602 10.978,4.497 2.918,2.896 4.566,6.832 4.582,10.943 0.016,4.111 -1.602,8.06 -4.497,10.978 -2.896,2.918 -6.832,4.566 -10.943,4.582 z m -0.29,-29.49 c -3.719,0.021 -7.278,1.516 -9.897,4.157 -2.619,2.642 -4.083,6.213 -4.073,9.933 0.011,3.719 1.496,7.283 4.129,9.909 2.634,2.626 6.202,4.101 9.921,4.101 3.72,0 7.287,-1.475 9.921,-4.101 2.634,-2.626 4.118,-6.19 4.129,-9.909 0.011,-3.72 -1.454,-7.291 -4.073,-9.933 -2.618,-2.641 -6.178,-4.136 -9.897,-4.157 z"
         fill="#3f3f3f"
         data-darkreader-inline-fill=""
         id="path48" />
      <path
         d="m 273.64,244.53 c 1.43,0.004 2.826,0.432 4.012,1.229 1.187,0.797 2.111,1.928 2.654,3.25 0.544,1.322 0.684,2.776 0.402,4.177 -0.282,1.402 -0.973,2.688 -1.986,3.697 -1.013,1.009 -2.302,1.695 -3.705,1.971 -1.402,0.276 -2.855,0.13 -4.175,-0.419 -1.32,-0.549 -2.447,-1.478 -3.24,-2.668 -0.792,-1.189 -1.214,-2.587 -1.212,-4.017 0.001,-0.95 0.19,-1.891 0.555,-2.768 0.365,-0.878 0.9,-1.674 1.573,-2.345 0.674,-0.671 1.473,-1.202 2.351,-1.563 0.879,-0.362 1.821,-0.547 2.771,-0.544 z"
         fill="#75787a"
         data-darkreader-inline-fill=""
         id="path50" />
      <path
         d="m 273.7,259.74 h -0.09 c -2.122,0.009 -4.16,-0.825 -5.667,-2.318 -1.507,-1.494 -2.359,-3.525 -2.368,-5.647 -0.009,-2.122 0.824,-4.16 2.318,-5.667 1.494,-1.507 3.525,-2.359 5.647,-2.368 h 0.1 c 1.05,-0.004 2.091,0.199 3.064,0.598 0.972,0.398 1.856,0.984 2.601,1.724 0.746,0.74 1.339,1.62 1.744,2.589 0.406,0.969 0.617,2.008 0.621,3.059 0.004,1.051 -0.199,2.092 -0.598,3.064 -0.398,0.972 -0.984,1.856 -1.724,2.602 -0.74,0.745 -1.62,1.338 -2.589,1.744 -0.969,0.405 -2.009,0.616 -3.059,0.62 z m -0.14,-14.46 c -1.726,0.009 -3.378,0.703 -4.594,1.928 -1.216,1.226 -1.896,2.883 -1.891,4.609 0.004,1.727 0.693,3.38 1.916,4.599 1.222,1.219 2.878,1.904 4.604,1.904 1.726,0 3.382,-0.685 4.604,-1.904 1.222,-1.219 1.911,-2.872 1.916,-4.599 0.004,-1.726 -0.676,-3.383 -1.891,-4.609 -1.216,-1.225 -2.868,-1.919 -4.594,-1.928 z"
         fill="#3f3f3f"
         data-darkreader-inline-fill=""
         id="path52" />
      <path
         d="m 174.79,156 c 2.914,0.01 5.76,0.883 8.178,2.51 2.417,1.626 4.299,3.933 5.406,6.628 1.108,2.696 1.391,5.659 0.815,8.515 -0.576,2.857 -1.986,5.479 -4.051,7.534 -2.065,2.056 -4.694,3.453 -7.553,4.016 -2.859,0.562 -5.821,0.264 -8.511,-0.856 -2.69,-1.12 -4.988,-3.012 -6.603,-5.438 -1.615,-2.425 -2.475,-5.275 -2.471,-8.189 0.004,-1.938 0.39,-3.856 1.135,-5.645 0.746,-1.788 1.836,-3.413 3.21,-4.78 1.373,-1.367 3.003,-2.45 4.795,-3.187 1.792,-0.737 3.712,-1.113 5.65,-1.108 z"
         fill="#75787a"
         data-darkreader-inline-fill=""
         id="path54" />
      <path
         d="m 174.92,186.24 h -0.19 c -2.036,-0.005 -4.05,-0.41 -5.929,-1.193 -1.879,-0.783 -3.585,-1.929 -5.021,-3.372 -1.436,-1.442 -2.574,-3.153 -3.349,-5.036 -0.775,-1.882 -1.171,-3.899 -1.166,-5.934 0.004,-2.036 0.41,-4.05 1.193,-5.929 0.783,-1.879 1.929,-3.585 3.371,-5.021 1.443,-1.436 3.154,-2.574 5.036,-3.349 1.883,-0.774 3.899,-1.171 5.935,-1.166 v 0 c 4.111,-0.016 8.059,1.602 10.977,4.497 2.918,2.896 4.567,6.832 4.583,10.943 0.016,4.111 -1.602,8.06 -4.498,10.978 -2.895,2.918 -6.831,4.566 -10.942,4.582 z m -0.3,-29.49 c -3.713,0.015 -7.268,1.504 -9.884,4.139 -2.615,2.636 -4.076,6.203 -4.061,9.916 0.014,3.713 1.503,7.268 4.139,9.883 2.636,2.616 6.203,4.077 9.916,4.062 h 0.17 c 3.713,-0.015 7.268,-1.504 9.883,-4.139 2.615,-2.636 4.076,-6.203 4.062,-9.916 -0.015,-3.713 -1.504,-7.268 -4.14,-9.883 -2.636,-2.616 -6.202,-4.077 -9.915,-4.062 z"
         fill="#3f3f3f"
         data-darkreader-inline-fill=""
         id="path56" />
      <path
         d="m 174.78,163.52 c 1.429,0.004 2.826,0.432 4.012,1.229 1.187,0.797 2.11,1.928 2.654,3.25 0.544,1.322 0.684,2.776 0.402,4.177 -0.282,1.402 -0.974,2.688 -1.986,3.697 -1.013,1.009 -2.303,1.695 -3.705,1.971 -1.403,0.276 -2.856,0.13 -4.176,-0.419 -1.319,-0.549 -2.447,-1.478 -3.239,-2.668 -0.792,-1.189 -1.214,-2.587 -1.212,-4.017 0.001,-0.95 0.19,-1.891 0.555,-2.768 0.365,-0.878 0.9,-1.674 1.573,-2.345 0.673,-0.671 1.472,-1.202 2.351,-1.563 0.879,-0.362 1.82,-0.547 2.771,-0.544 z"
         fill="#75787a"
         data-darkreader-inline-fill=""
         id="path58" />
      <path
         d="m 174.84,178.73 h -0.09 c -1.573,-0.012 -3.108,-0.489 -4.413,-1.369 -1.304,-0.881 -2.32,-2.126 -2.919,-3.581 -0.6,-1.455 -0.758,-3.054 -0.453,-4.598 0.304,-1.544 1.058,-2.964 2.165,-4.082 1.52,-1.463 3.54,-2.293 5.65,-2.32 2.122,0 4.157,0.843 5.657,2.343 1.5,1.5 2.343,3.535 2.343,5.657 -0.013,2.103 -0.853,4.116 -2.339,5.604 -1.486,1.487 -3.498,2.33 -5.601,2.346 z m -0.14,-14.46 c -1.705,0.018 -3.335,0.708 -4.537,1.918 -1.201,1.211 -1.878,2.846 -1.883,4.552 -0.003,1.72 0.677,3.37 1.89,4.589 1.213,1.218 2.861,1.906 4.58,1.911 h 0.08 c 1.724,-0.007 3.375,-0.698 4.589,-1.921 1.214,-1.224 1.893,-2.88 1.886,-4.604 -0.006,-1.724 -0.698,-3.375 -1.921,-4.589 -1.224,-1.214 -2.88,-1.893 -4.604,-1.886 h -0.08 z"
         fill="#3f3f3f"
         data-darkreader-inline-fill=""
         id="path60" />
      <path
         d="m 272.73,156.21 c 2.92,-0.004 5.775,0.859 8.204,2.479 2.429,1.62 4.323,3.925 5.441,6.622 1.119,2.697 1.411,5.665 0.841,8.529 -0.57,2.864 -1.977,5.494 -4.043,7.557 -2.066,2.063 -4.698,3.467 -7.563,4.033 -2.864,0.566 -5.832,0.27 -8.528,-0.852 -2.695,-1.122 -4.997,-3.019 -6.614,-5.45 -1.617,-2.432 -2.476,-5.288 -2.468,-8.208 0.008,-3.902 1.563,-7.642 4.324,-10.4 2.762,-2.757 6.504,-4.307 10.406,-4.31 z"
         fill="#75787a"
         data-darkreader-inline-fill=""
         id="path62" />
      <path
         d="m 272.86,186.44 h -0.19 c -4.111,0.015 -8.059,-1.605 -10.976,-4.501 -2.918,-2.897 -4.565,-6.833 -4.579,-10.944 -0.015,-4.111 1.604,-8.059 4.501,-10.976 2.896,-2.917 6.833,-4.564 10.944,-4.579 h 0.18 c 3.064,0.007 6.057,0.923 8.6,2.631 2.543,1.708 4.523,4.132 5.689,6.965 1.166,2.834 1.465,5.949 0.86,8.953 -0.605,3.003 -2.087,5.76 -4.259,7.921 -2.852,2.872 -6.723,4.5 -10.77,4.53 z M 272.57,157 c -3.713,0.013 -7.269,1.501 -9.885,4.136 -2.616,2.635 -4.078,6.201 -4.065,9.914 0.013,3.713 1.501,7.269 4.136,9.885 2.635,2.616 6.201,4.078 9.914,4.065 h 0.17 c 3.713,-0.015 7.268,-1.504 9.883,-4.139 2.615,-2.636 4.076,-6.203 4.062,-9.916 -0.015,-3.713 -1.504,-7.268 -4.14,-9.883 -2.635,-2.616 -6.202,-4.077 -9.915,-4.062 z"
         fill="#3f3f3f"
         data-darkreader-inline-fill=""
         id="path64" />
      <path
         d="m 272.72,163.73 c 1.43,0.004 2.826,0.432 4.013,1.23 1.187,0.797 2.11,1.929 2.654,3.252 0.544,1.322 0.683,2.776 0.4,4.178 -0.283,1.402 -0.975,2.688 -1.989,3.697 -1.014,1.008 -2.304,1.693 -3.707,1.968 -1.404,0.275 -2.857,0.128 -4.177,-0.423 -1.319,-0.551 -2.446,-1.481 -3.237,-2.672 -0.791,-1.191 -1.211,-2.59 -1.207,-4.02 10e-4,-0.95 0.19,-1.89 0.555,-2.767 0.365,-0.877 0.9,-1.673 1.574,-2.342 0.673,-0.67 1.472,-1.201 2.351,-1.561 0.879,-0.36 1.82,-0.544 2.77,-0.54 z"
         fill="#75787a"
         data-darkreader-inline-fill=""
         id="path66" />
      <path
         d="m 272.79,178.93 h -0.11 c -1.573,-0.014 -3.107,-0.492 -4.409,-1.373 -1.303,-0.882 -2.317,-2.127 -2.916,-3.582 -0.599,-1.454 -0.755,-3.053 -0.45,-4.596 0.305,-1.543 1.058,-2.962 2.165,-4.079 1.508,-1.482 3.536,-2.315 5.65,-2.32 2.121,0 4.156,0.843 5.657,2.343 1.5,1.5 2.343,3.535 2.343,5.657 0,2.103 -0.828,4.121 -2.304,5.618 -1.477,1.497 -3.484,2.353 -5.586,2.382 z m -0.15,-14.46 c -1.731,0.011 -3.388,0.707 -4.606,1.937 -1.218,1.229 -1.9,2.892 -1.894,4.623 0.005,1.731 0.696,3.389 1.922,4.611 1.226,1.223 2.887,1.909 4.618,1.909 1.731,0 3.391,-0.686 4.617,-1.909 1.226,-1.222 1.917,-2.88 1.923,-4.611 0.005,-1.731 -0.676,-3.394 -1.895,-4.623 -1.218,-1.23 -2.874,-1.926 -4.605,-1.937 z"
         fill="#3f3f3f"
         data-darkreader-inline-fill=""
         id="path68" />
      <path
         d="m 192.2,170.39 c 0.038,3.468 -0.954,6.869 -2.85,9.772 -1.896,2.904 -4.61,5.18 -7.8,6.541 -3.19,1.361 -6.712,1.745 -10.12,1.104 -3.408,-0.641 -6.549,-2.279 -9.026,-4.706 -2.478,-2.426 -4.179,-5.533 -4.89,-8.928 -0.711,-3.394 -0.4,-6.923 0.895,-10.14 1.295,-3.217 3.515,-5.977 6.379,-7.932 2.865,-1.956 6.244,-3.017 9.712,-3.051 4.646,-0.045 9.12,1.756 12.439,5.007 3.319,3.251 5.211,7.687 5.261,12.333 z"
         fill="#e6e6e6"
         data-darkreader-inline-fill=""
         id="path70" />
      <path
         d="m 190.34,251.14 c 0.037,3.467 -0.955,6.868 -2.85,9.771 -1.895,2.904 -4.609,5.18 -7.798,6.541 -3.19,1.361 -6.711,1.746 -10.119,1.106 -3.407,-0.641 -6.549,-2.277 -9.026,-4.703 -2.478,-2.426 -4.18,-5.532 -4.893,-8.926 -0.712,-3.393 -0.401,-6.922 0.892,-10.139 1.293,-3.217 3.512,-5.978 6.375,-7.935 2.863,-1.956 6.241,-3.019 9.709,-3.055 4.647,-0.045 9.121,1.755 12.442,5.006 3.32,3.251 5.215,7.687 5.268,12.334 z"
         fill="#e6e6e6"
         data-darkreader-inline-fill=""
         id="path72" />
      <path
         d="m 291.79,251.74 c 0.037,3.467 -0.954,6.868 -2.85,9.771 -1.895,2.904 -4.609,5.18 -7.798,6.541 -3.189,1.361 -6.711,1.746 -10.118,1.106 -3.408,-0.641 -6.549,-2.277 -9.027,-4.703 -2.478,-2.426 -4.18,-5.532 -4.892,-8.926 -0.712,-3.393 -0.402,-6.922 0.891,-10.139 1.294,-3.217 3.512,-5.978 6.375,-7.935 2.863,-1.956 6.242,-3.019 9.709,-3.055 4.647,-0.045 9.122,1.755 12.442,5.006 3.321,3.251 5.215,7.687 5.268,12.334 z"
         fill="#e6e6e6"
         data-darkreader-inline-fill=""
         id="path74" />
      <path
         d="m 290.46,171 c 0.037,3.468 -0.955,6.869 -2.85,9.772 -1.896,2.904 -4.611,5.18 -7.8,6.541 -3.19,1.361 -6.712,1.745 -10.12,1.104 -3.408,-0.641 -6.549,-2.279 -9.027,-4.706 -2.477,-2.426 -4.179,-5.533 -4.89,-8.928 -0.711,-3.394 -0.399,-6.923 0.896,-10.14 1.295,-3.217 3.515,-5.977 6.379,-7.933 2.864,-1.955 6.244,-3.016 9.712,-3.05 2.301,-0.025 4.585,0.404 6.72,1.262 2.135,0.858 4.08,2.129 5.724,3.739 1.644,1.61 2.954,3.529 3.856,5.646 0.902,2.118 1.378,4.392 1.4,6.693 z"
         fill="#e6e6e6"
         data-darkreader-inline-fill=""
         id="path76" />
      <path
         d="m 191.14,333.46 c 0.036,3.467 -0.958,6.867 -2.855,9.77 -1.897,2.902 -4.612,5.177 -7.802,6.536 -3.19,1.359 -6.712,1.742 -10.119,1.1 -3.407,-0.643 -6.548,-2.281 -9.024,-4.708 -2.476,-2.427 -4.177,-5.535 -4.887,-8.928 -0.711,-3.394 -0.398,-6.923 0.897,-10.139 1.295,-3.217 3.515,-5.977 6.379,-7.931 2.864,-1.955 6.244,-3.016 9.711,-3.05 2.302,-0.024 4.586,0.406 6.721,1.265 2.135,0.86 4.08,2.131 5.724,3.742 1.644,1.612 2.954,3.531 3.856,5.649 0.901,2.118 1.377,4.392 1.399,6.694 z"
         fill="#e6e6e6"
         data-darkreader-inline-fill=""
         id="path78" />
      <path
         d="m 290.47,334.08 c 0.035,3.467 -0.958,6.867 -2.855,9.77 -1.897,2.902 -4.613,5.177 -7.803,6.536 -3.19,1.359 -6.711,1.742 -10.118,1.1 -3.408,-0.643 -6.548,-2.281 -9.025,-4.708 -2.476,-2.427 -4.177,-5.535 -4.887,-8.928 -0.71,-3.394 -0.398,-6.923 0.898,-10.139 1.295,-3.217 3.515,-5.977 6.379,-7.931 2.864,-1.955 6.243,-3.016 9.711,-3.05 2.301,-0.024 4.585,0.406 6.72,1.265 2.136,0.86 4.081,2.131 5.725,3.742 1.643,1.612 2.954,3.531 3.855,5.649 0.902,2.118 1.378,4.392 1.4,6.694 z"
         fill="#e6e6e6"
         data-darkreader-inline-fill=""
         id="path80" />
      <path
         d="m 277.93,472.32 c 0,2.39 -2.73,4.33 -6.09,4.33 l -97.76,-0.21 c -3.35,0 -6.07,-1.95 -6.06,-4.35 0,-2.4 2.72,-4.34 6.08,-4.33 l 97.76,0.2 c 3.36,0.04 6.07,1.96 6.07,4.36 z"
         fill="#b5b5b5"
         data-darkreader-inline-fill=""
         id="path82" />
      <path
         id="string-2"
         d="m 218.51,469.73 c 0.005,-0.053 0.005,-0.107 0,-0.16 L 180.58,177.14 c -0.035,-0.265 -0.173,-0.506 -0.385,-0.669 -0.212,-0.163 -0.48,-0.235 -0.745,-0.201 -0.266,0.034 -0.506,0.173 -0.669,0.385 -0.163,0.212 -0.236,0.48 -0.201,0.745 l 37.92,292.26 c 0.005,0.053 0.005,0.107 0,0.16 v 9.52022 h 2.01 c 0.0145,-3.20213 0.008,-6.40718 1e-5,-9.61022 z"
         fill="#ebffff"
         data-darkreader-inline-fill=""
         sodipodi:nodetypes="cccscsccccccc">
        <animate
           attributeName="fill"
           restart="always"
           dur="4s"
           keyTimes="0;.1;1"
           values="#5f93f8; #5f93f8; #ebffff;" />
      </path>
      <path
         opacity="0.26"
         d="m 182.91,172.08 c 0.02,1.838 -0.506,3.64 -1.511,5.179 -1.005,1.538 -2.443,2.745 -4.134,3.466 -1.69,0.721 -3.556,0.924 -5.362,0.584 -1.806,-0.34 -3.471,-1.207 -4.784,-2.494 -1.313,-1.286 -2.214,-2.932 -2.591,-4.731 -0.377,-1.799 -0.212,-3.669 0.475,-5.374 0.686,-1.705 1.862,-3.168 3.38,-4.204 1.518,-1.036 3.309,-1.598 5.147,-1.616 1.22,-0.013 2.43,0.214 3.561,0.669 1.132,0.455 2.163,1.128 3.034,1.982 0.871,0.853 1.565,1.87 2.043,2.992 0.478,1.122 0.73,2.327 0.742,3.547 z"
         fill="#adadad"
         data-darkreader-inline-fill=""
         id="path85" />
      <path
         opacity="0.26"
         d="m 281.17,172.71 c 0.02,1.836 -0.506,3.636 -1.509,5.173 -1.004,1.537 -2.441,2.742 -4.13,3.462 -1.688,0.721 -3.553,0.924 -5.357,0.585 -1.804,-0.34 -3.467,-1.207 -4.778,-2.492 -1.311,-1.284 -2.212,-2.929 -2.589,-4.726 -0.376,-1.797 -0.211,-3.665 0.475,-5.368 0.685,-1.703 1.86,-3.164 3.377,-4.199 1.516,-1.035 3.305,-1.597 5.141,-1.615 2.459,-0.024 4.828,0.929 6.585,2.651 1.757,1.721 2.758,4.069 2.785,6.529 z"
         fill="#adadad"
         data-darkreader-inline-fill=""
         id="path87" />
      <path
         id="string-3"
         d="m 237,469.66 0.78,-14.13 28,-283.88 c 0.025,-0.265 -0.056,-0.53 -0.226,-0.735 -0.17,-0.205 -0.414,-0.335 -0.679,-0.36 -0.265,-0.025 -0.53,0.056 -0.735,0.226 -0.205,0.169 -0.335,0.414 -0.36,0.679 l -28,283.91 -0.78,14.23 0.0688,9.74022 H 237 Z"
         fill="#ebffff"
         data-darkreader-inline-fill=""
         sodipodi:nodetypes="cccssccccccc">
        <animate
           attributeName="fill"
           restart="always"
           dur="4s"
           keyTimes="0;.1;1"
           values="#5f93f8; #5f93f8; #ebffff;" />
      </path>
      <path
         id="string-1"
         d="M 198.3,479.34022 V 469.27 c 0.005,-0.063 0.005,-0.127 0,-0.19 L 180.1,257.46 c -0.036,-0.395 -0.226,-0.759 -0.53,-1.014 -0.303,-0.255 -0.695,-0.379 -1.09,-0.346 v 0 c -0.195,0.018 -0.385,0.073 -0.558,0.164 -0.174,0.091 -0.328,0.216 -0.453,0.366 -0.126,0.151 -0.22,0.324 -0.278,0.511 -0.058,0.187 -0.079,0.384 -0.061,0.579 l 18.2,211.42 c 0.005,0.063 0.005,0.127 0,0.19 v 10.01022 z"
         fill="#ebffff"
         data-darkreader-inline-fill=""
         sodipodi:nodetypes="cccccssccsccccc">
        <animate
           attributeName="fill"
           restart="always"
           dur="4s"
           keyTimes="0;.1;1"
           values="#5f93f8; #5f93f8; #ebffff;" />
      </path>
      <path
         opacity="0.26"
         d="m 181,252.82 c 0.02,1.836 -0.506,3.636 -1.509,5.173 -1.004,1.537 -2.441,2.742 -4.13,3.462 -1.688,0.721 -3.552,0.924 -5.357,0.584 -1.804,-0.339 -3.467,-1.206 -4.778,-2.491 -1.311,-1.284 -2.212,-2.929 -2.588,-4.726 -0.377,-1.797 -0.212,-3.665 0.474,-5.368 0.685,-1.703 1.861,-3.164 3.377,-4.199 1.516,-1.035 3.305,-1.597 5.141,-1.615 1.218,-0.013 2.427,0.214 3.557,0.668 1.131,0.454 2.161,1.127 3.031,1.98 0.87,0.852 1.564,1.868 2.041,2.989 0.477,1.121 0.729,2.325 0.741,3.543 z"
         fill="#adadad"
         data-darkreader-inline-fill=""
         id="path91" />
      <path
         opacity="0.26"
         d="m 282.49,253.43 c 0.017,1.835 -0.509,3.635 -1.514,5.171 -1.005,1.535 -2.443,2.739 -4.132,3.457 -1.689,0.719 -3.553,0.921 -5.356,0.58 -1.803,-0.34 -3.465,-1.208 -4.776,-2.493 -1.31,-1.285 -2.21,-2.93 -2.586,-4.727 -0.375,-1.796 -0.209,-3.664 0.476,-5.366 0.686,-1.703 1.862,-3.163 3.378,-4.198 1.516,-1.034 3.304,-1.596 5.14,-1.614 1.219,-0.013 2.428,0.214 3.56,0.669 1.131,0.455 2.161,1.129 3.031,1.982 0.87,0.854 1.564,1.871 2.041,2.993 0.477,1.122 0.727,2.327 0.738,3.546 z"
         fill="#adadad"
         data-darkreader-inline-fill=""
         id="path93" />
      <path
         id="string-4"
         d="M 253.58683,479.34022 253.57,469.26 v -0.06 l 15,-212.2 c 0.007,-0.097 -0.006,-0.195 -0.037,-0.287 -0.031,-0.093 -0.08,-0.178 -0.144,-0.251 -0.064,-0.074 -0.142,-0.134 -0.229,-0.177 -0.088,-0.043 -0.183,-0.069 -0.28,-0.075 v 0 c -0.097,-0.007 -0.195,0.006 -0.287,0.037 -0.093,0.031 -0.178,0.08 -0.252,0.144 -0.073,0.064 -0.133,0.142 -0.176,0.229 -0.043,0.088 -0.069,0.183 -0.075,0.28 l -15,212.25 v 0.06 10.13022 z"
         fill="#ebffff"
         data-darkreader-inline-fill=""
         sodipodi:nodetypes="cccccccsscccccccc">
        <animate
           attributeName="fill"
           restart="always"
           dur="4s"
           keyTimes="0;.1;1"
           values="#5f93f8; #5f93f8; #ebffff;" />
      </path>
      <path
         opacity="0.26"
         d="m 181.85,335.14 c 0.022,1.838 -0.503,3.641 -1.506,5.181 -1.004,1.54 -2.442,2.748 -4.132,3.471 -1.69,0.722 -3.557,0.927 -5.363,0.589 -1.807,-0.339 -3.473,-1.206 -4.786,-2.492 -1.314,-1.286 -2.217,-2.932 -2.594,-4.731 -0.378,-1.799 -0.213,-3.67 0.473,-5.375 0.686,-1.706 1.862,-3.169 3.38,-4.206 1.518,-1.036 3.31,-1.599 5.148,-1.617 1.219,-0.013 2.428,0.214 3.559,0.668 1.131,0.454 2.161,1.127 3.032,1.979 0.871,0.853 1.566,1.868 2.044,2.989 0.479,1.121 0.732,2.325 0.745,3.544 z"
         fill="#adadad"
         data-darkreader-inline-fill=""
         id="path96" />
      <path
         id="string-0"
         d="M 182.86,470.07 V 470 l -4,-127 c -0.016,-0.53 -0.242,-1.033 -0.628,-1.397 -0.387,-0.363 -0.902,-0.559 -1.432,-0.543 -0.531,0.016 -1.033,0.242 -1.397,0.628 -0.364,0.387 -0.559,0.902 -0.543,1.432 l 4,126.89 v 0.19 l -0.0426,9.14022 h 4.0426 z"
         fill="#ebffff"
         data-darkreader-inline-fill=""
         sodipodi:nodetypes="ccccsccccccc">
        <animate
           attributeName="fill"
           restart="always"
           dur="4s"
           keyTimes="0;.1;1"
           values="#5f93f8; #5f93f8; #ebffff;" />
      </path>
      <path
         opacity="0.26"
         d="m 281.17,335.76 c 0.02,1.836 -0.506,3.636 -1.509,5.173 -1.004,1.537 -2.441,2.742 -4.13,3.462 -1.688,0.721 -3.553,0.924 -5.357,0.585 -1.804,-0.34 -3.467,-1.207 -4.778,-2.492 -1.311,-1.284 -2.212,-2.929 -2.589,-4.726 -0.376,-1.797 -0.211,-3.665 0.475,-5.368 0.685,-1.703 1.86,-3.164 3.377,-4.199 1.516,-1.035 3.305,-1.597 5.141,-1.615 1.218,-0.013 2.427,0.214 3.557,0.668 1.131,0.455 2.16,1.127 3.031,1.98 0.87,0.852 1.564,1.868 2.041,2.989 0.477,1.121 0.729,2.325 0.741,3.543 z"
         fill="#adadad"
         data-darkreader-inline-fill=""
         id="path99" />
      <path
         id="string-5"
         d="M 269.29,471.77 269.21,469.01 267,338.22 c -0.005,-0.132 -0.061,-0.256 -0.156,-0.348 -0.095,-0.091 -0.222,-0.142 -0.354,-0.142 -0.131,0.008 -0.254,0.064 -0.345,0.159 -0.091,0.094 -0.143,0.22 -0.145,0.351 l 2.22,130.76 0.07,2.75 -0.0314,7.59022 h 1.03124 z"
         fill="#ebffff"
         data-darkreader-inline-fill=""
         sodipodi:nodetypes="cccccccccccc">
        <animate
           attributeName="fill"
           restart="always"
           dur="4s"
           keyTimes="0;.1;1"
           values="#5f93f8; #5f93f8; #ebffff;" />
      </path>
      <path
         d="m 184.48,169.94 c 0.018,1.835 -0.509,3.635 -1.514,5.17 -1.005,1.536 -2.443,2.74 -4.131,3.458 -1.689,0.719 -3.553,0.921 -5.357,0.58 -1.803,-0.34 -3.465,-1.208 -4.776,-2.493 -1.31,-1.285 -2.21,-2.93 -2.585,-4.727 -0.376,-1.796 -0.21,-3.664 0.476,-5.366 0.686,-1.703 1.861,-3.163 3.377,-4.198 1.516,-1.034 3.305,-1.596 5.14,-1.614 1.219,-0.012 2.428,0.216 3.558,0.672 1.131,0.455 2.16,1.129 3.03,1.982 0.871,0.854 1.564,1.87 2.041,2.991 0.478,1.122 0.729,2.326 0.741,3.545 z"
         fill="#b3b3b3"
         data-darkreader-inline-fill=""
         id="path102" />
      <path
         d="m 282.74,170.57 c 0.02,1.836 -0.505,3.636 -1.509,5.173 -1.004,1.537 -2.441,2.742 -4.129,3.462 -1.689,0.721 -3.553,0.924 -5.357,0.584 -1.804,-0.339 -3.467,-1.206 -4.779,-2.491 -1.311,-1.284 -2.212,-2.929 -2.588,-4.726 -0.377,-1.797 -0.212,-3.665 0.474,-5.368 0.686,-1.703 1.861,-3.164 3.377,-4.199 1.516,-1.035 3.305,-1.597 5.141,-1.615 1.218,-0.013 2.427,0.214 3.558,0.668 1.13,0.454 2.16,1.127 3.03,1.98 0.87,0.852 1.564,1.868 2.041,2.989 0.478,1.121 0.729,2.325 0.741,3.543 z"
         fill="#b3b3b3"
         data-darkreader-inline-fill=""
         id="path104" />
      <path
         d="m 182.61,250.68 c 0.019,1.836 -0.506,3.636 -1.509,5.173 -1.004,1.537 -2.441,2.742 -4.13,3.463 -1.688,0.72 -3.553,0.923 -5.357,0.584 -1.804,-0.34 -3.467,-1.207 -4.778,-2.492 -1.311,-1.284 -2.212,-2.929 -2.589,-4.726 -0.376,-1.797 -0.211,-3.665 0.475,-5.368 0.685,-1.703 1.86,-3.164 3.377,-4.199 1.516,-1.035 3.305,-1.597 5.141,-1.615 1.218,-0.013 2.427,0.214 3.557,0.668 1.131,0.455 2.16,1.127 3.031,1.98 0.87,0.852 1.563,1.868 2.041,2.989 0.477,1.121 0.729,2.325 0.741,3.543 z"
         fill="#b3b3b3"
         data-darkreader-inline-fill=""
         id="path106" />
      <path
         d="m 284.06,251.29 c 0.018,1.835 -0.509,3.635 -1.514,5.17 -1.005,1.536 -2.443,2.74 -4.131,3.458 -1.689,0.719 -3.553,0.921 -5.357,0.58 -1.803,-0.34 -3.465,-1.208 -4.775,-2.493 -1.311,-1.285 -2.211,-2.93 -2.586,-4.727 -0.376,-1.796 -0.21,-3.664 0.476,-5.366 0.686,-1.703 1.861,-3.163 3.377,-4.198 1.516,-1.034 3.305,-1.596 5.14,-1.614 1.219,-0.013 2.429,0.214 3.56,0.669 1.131,0.455 2.161,1.129 3.031,1.982 0.871,0.854 1.564,1.871 2.041,2.993 0.477,1.122 0.728,2.327 0.738,3.546 z"
         fill="#b3b3b3"
         data-darkreader-inline-fill=""
         id="path108" />
      <path
         d="m 183.42,333 c 0.02,1.836 -0.506,3.636 -1.509,5.173 -1.004,1.537 -2.441,2.742 -4.13,3.462 -1.688,0.721 -3.553,0.924 -5.357,0.585 -1.804,-0.34 -3.467,-1.207 -4.778,-2.492 -1.311,-1.284 -2.212,-2.929 -2.589,-4.726 -0.376,-1.797 -0.211,-3.665 0.475,-5.368 0.685,-1.703 1.86,-3.164 3.377,-4.199 1.516,-1.035 3.305,-1.597 5.141,-1.615 2.459,-0.024 4.828,0.929 6.585,2.651 1.757,1.721 2.758,4.07 2.785,6.529 z"
         fill="#b3b3b3"
         data-darkreader-inline-fill=""
         id="path110" />
      <path
         d="m 282.74,333.62 c 0.02,1.836 -0.505,3.636 -1.509,5.173 -1.004,1.537 -2.441,2.742 -4.129,3.462 -1.689,0.721 -3.553,0.924 -5.357,0.585 -1.804,-0.34 -3.467,-1.207 -4.779,-2.492 -1.311,-1.284 -2.212,-2.929 -2.588,-4.726 -0.377,-1.797 -0.212,-3.665 0.474,-5.368 0.686,-1.703 1.861,-3.164 3.377,-4.199 1.516,-1.035 3.305,-1.597 5.141,-1.615 1.218,-0.013 2.427,0.214 3.558,0.668 1.13,0.455 2.16,1.127 3.03,1.98 0.87,0.852 1.564,1.868 2.041,2.989 0.478,1.121 0.729,2.325 0.741,3.543 z"
         fill="#b3b3b3"
         data-darkreader-inline-fill=""
         id="path112" />
      <path
         opacity="0.14"
         d="m 223.86,149.8 c 12.71,-0.13 22.25,-100.48 22.73,-50.8101 0.48,49.6701 -9.42,90.0501 -22.13,90.1801 -12.71,0.13 -23.41,-40 -23.9,-89.73 -0.49,-49.73 10.59,50.48 23.3,50.36 z"
         fill="#ffffff"
         data-darkreader-inline-fill=""
         id="path114" />
      <path
         opacity="0.14"
         d="m 224.395,303.466 c 8.196,-0.08 14.665,-18.044 14.449,-40.123 -0.216,-22.079 -7.035,-39.913 -15.23,-39.833 -8.196,0.08 -14.665,18.044 -14.449,40.123 0.216,22.079 7.035,39.913 15.23,39.833 z"
         fill="#ffffff"
         data-darkreader-inline-fill=""
         id="path116" />
    </g>
  </g>
</svg>
